<?xml version="1.0" standalone="no"?>
<!DOCTYPE svg PUBLIC "-//W3C//DTD SVG 20010904//EN"
 "http://www.w3.org/TR/2001/REC-SVG-20010904/DTD/svg10.dtd">
<svg version="1.0" xmlns="http://www.w3.org/2000/svg"
 width="800.000000pt" height="800.000000pt" viewBox="0 0 800.000000 800.000000"
 preserveAspectRatio="xMidYMid meet">
<metadata>
Created by potrace 1.16, written by Peter Selinger 2001-2019
</metadata>
<g transform="translate(0.000000,800.000000) scale(0.100000,-0.100000)"
fill="#000000" stroke="none">
<path d="M3785 6089 c-673 -73 -1263 -456 -1604 -1041 -455 -781 -345 -1797
266 -2458 340 -368 747 -587 1238 -667 153 -24 477 -24 630 0 464 76 854 276
1177 604 343 347 541 763 593 1243 61 561 -94 1097 -446 1540 -77 97 -253 271
-349 347 -278 216 -619 363 -970 418 -129 20 -414 27 -535 14z m371 -119 c700
-56 1315 -476 1620 -1105 382 -786 208 -1717 -431 -2314 -292 -272 -642 -441
-1050 -508 -160 -26 -447 -24 -615 5 -213 36 -368 87 -561 183 -314 156 -577
389 -772 684 -380 575 -428 1319 -127 1944 326 674 991 1099 1756 1120 28 0
109 -4 180 -9z"/>
<path d="M3865 5830 c-267 -20 -541 -103 -770 -235 -189 -109 -315 -210 -315
-253 0 -22 222 -249 1263 -1290 694 -694 1272 -1265 1285 -1268 36 -10 62 10
129 99 219 290 341 610 374 982 27 303 -43 659 -186 947 -100 201 -252 408
-300 408 -31 0 -68 -46 -59 -74 4 -11 30 -50 59 -86 160 -199 279 -454 336
-725 21 -98 24 -135 24 -340 -1 -253 -12 -329 -75 -525 -57 -176 -257 -539
-291 -528 -5 2 -409 403 -898 892 l-888 888 16 66 17 67 414 0 414 0 69 -275
c61 -241 69 -286 69 -365 -1 -52 -7 -111 -16 -140 -23 -73 -21 -102 9 -121 66
-43 117 49 129 232 2 38 0 96 -5 129 -17 109 -151 630 -167 648 -14 16 -51 17
-502 17 -555 0 -508 8 -531 -92 -6 -32 -15 -58 -18 -58 -14 0 -513 509 -507
518 3 5 50 39 104 75 172 117 394 209 617 259 88 20 129 22 335 22 206 0 247
-2 335 -22 274 -61 551 -192 745 -352 56 -46 76 -53 103 -38 72 37 43 89 -115
201 -207 148 -454 254 -712 307 -82 17 -345 43 -381 38 -5 0 -55 -4 -110 -8z"/>
<path d="M2587 5168 c-163 -174 -328 -518 -386 -805 -96 -474 0 -969 267
-1374 137 -206 199 -251 240 -172 15 28 8 46 -45 111 -161 198 -285 463 -346
737 -19 88 -22 129 -21 335 0 205 3 248 22 336 32 147 95 322 163 454 58 111
162 270 177 270 4 0 159 -152 345 -338 l338 -338 -12 -86 c-17 -124 5 -249 67
-377 63 -129 170 -239 294 -299 83 -41 181 -72 227 -72 l23 0 0 -187 c0 -204
-9 -261 -52 -329 -55 -86 -142 -140 -244 -153 -72 -8 -96 -25 -96 -66 0 -61
-9 -60 452 -60 460 0 453 -1 453 60 0 41 -25 58 -97 66 -114 14 -213 84 -263
188 -27 55 -28 60 -31 267 l-4 211 53 7 53 7 448 -448 c246 -246 448 -451 448
-455 0 -18 -167 -124 -295 -188 -218 -109 -406 -161 -639 -179 -426 -32 -873
107 -1200 373 -63 52 -94 60 -126 31 -33 -30 -25 -59 33 -110 74 -67 242 -176
361 -234 284 -140 645 -210 942 -182 329 30 615 128 875 300 132 87 209 155
209 186 0 30 -2533 2565 -2564 2565 -11 0 -41 -22 -69 -52z m1168 -1198 l296
-295 -65 -3 c-133 -6 -269 51 -378 160 -94 93 -138 185 -159 333 -7 52 -3 112
7 103 2 -2 136 -136 299 -298z m290 -1047 l37 -43 -82 0 -82 0 36 40 c20 22
36 45 36 52 0 7 3 8 9 3 4 -6 25 -29 46 -52z"/>
</g>
</svg>
