<?xml version="1.0" encoding="UTF-8"?>
<svg version="1.1" xmlns="http://www.w3.org/2000/svg" width="128" height="128">
<path d="M0 0 C0.70537399 0.1062822 1.41074799 0.21256439 2.13749695 0.32206726 C-3.41285508 7.10583085 -9.62692332 13.17729694 -15.86250305 19.32206726 C-3.36938756 18.04842777 3.96322287 15.09242438 12.27641296 5.45463562 C16.65460877 0.39705391 16.65460877 0.39705391 20.0554657 -0.13105774 C21.08607117 0.09323914 21.08607117 0.09323914 22.13749695 0.32206726 C17.72906258 5.6121885 13.06189901 10.51015154 8.13749695 15.32206726 C12.34083085 17.46827821 15.46200801 18.16732611 20.13749695 17.32206726 C24.36550817 14.23627012 27.80857457 10.38213844 31.26029968 6.4707489 C31.95067322 5.69207458 32.64104675 4.91340027 33.3523407 4.11112976 C33.96198669 3.38619324 34.57163269 2.66125671 35.19975281 1.91435242 C37.13749695 0.32206726 37.13749695 0.32206726 39.87406921 0.08525085 C40.99446594 0.20247498 40.99446594 0.20247498 42.13749695 0.32206726 C36.58714492 7.10583085 30.37307668 13.17729694 24.13749695 19.32206726 C27.10749695 20.97206726 30.07749695 22.62206726 33.13749695 24.32206726 C33.83834412 23.59503601 34.53919128 22.86800476 35.26127625 22.11894226 C37.86695885 19.42270117 40.48920331 16.74309019 43.116745 14.06816101 C44.2512106 12.90856433 45.38114656 11.74451797 46.50639343 10.57597351 C48.12559303 8.89606285 49.76046049 7.23287934 51.3992157 5.57206726 C51.89837997 5.04709656 52.39754425 4.52212585 52.91183472 3.98124695 C55.27713829 1.61408287 56.61352194 0.38221095 59.99613953 -0.00605774 C61.05611145 0.15636414 61.05611145 0.15636414 62.13749695 0.32206726 C57.1755484 6.31707723 51.78983455 11.78633763 46.26249695 17.25956726 C45.38335632 18.13419617 44.5042157 19.00882507 43.59843445 19.90995789 C41.44706235 22.04963774 39.29337903 24.18693323 37.13749695 26.32206726 C38.4968678 29.18265636 39.78270164 31.18134425 42.13749695 33.32206726 C45.90195461 31.7619238 48.25147767 29.4242455 51.0867157 26.53300476 C51.54480118 26.06971771 52.00288666 25.60643066 52.47485352 25.12910461 C53.92976145 23.65645485 55.37776692 22.17725997 56.82499695 20.69706726 C58.74241593 18.74338728 60.66382601 16.79381887 62.5867157 14.84550476 C63.43580505 13.9784491 64.28489441 13.11139343 65.15971375 12.21806335 C67.13749695 10.32206726 67.13749695 10.32206726 68.13749695 10.32206726 C68.4382782 12.49076843 68.4382782 12.49076843 68.13749695 15.32206726 C66.1179657 17.90922546 66.1179657 17.90922546 63.32499695 20.62284851 C62.83668396 21.10408676 62.34837097 21.58532501 61.84526062 22.08114624 C60.28737063 23.61111231 58.71299109 25.12275615 57.13749695 26.63456726 C56.07646476 27.67051404 55.01655465 28.7076114 53.95780945 29.74589539 C51.36391187 32.2847519 48.75493753 34.80746375 46.13749695 37.32206726 C46.45460632 38.08905945 46.7717157 38.85605164 47.09843445 39.64628601 C48.09447539 42.21127865 48.67370171 44.61659503 49.13749695 47.32206726 C54.76453241 42.57523846 59.99145773 37.53121584 65.1335907 32.26347351 C67.13749695 30.32206726 67.13749695 30.32206726 68.13749695 30.32206726 C68.42844086 33.314771 68.55668919 34.79189006 66.65287781 37.19975281 C65.97620056 37.78023376 65.29952332 38.36071472 64.6023407 38.95878601 C63.87595398 39.61943054 63.14956726 40.28007507 62.40116882 40.96073914 C60.85782104 42.32007736 59.30313168 43.66665223 57.73710632 44.99980164 C53.49491668 48.77657096 53.49491668 48.77657096 51.82939148 54.00028992 C52.13974919 57.3789982 52.61514733 60.27736803 54.13749695 63.32206726 C55.52775085 61.91441101 55.52775085 61.91441101 56.9460907 60.47831726 C58.15559491 59.25943705 59.36523746 58.0406941 60.57499695 56.82206726 C61.1866571 56.2020282 61.79831726 55.58198914 62.42851257 54.94316101 C63.30346375 54.06337585 63.30346375 54.06337585 64.1960907 53.16581726 C64.73548279 52.62118835 65.27487488 52.07655945 65.83061218 51.51542664 C67.13749695 50.32206726 67.13749695 50.32206726 68.13749695 50.32206726 C68.52627632 54.80904985 68.52627632 54.80904985 66.80815125 57.07621765 C66.19882751 57.60207458 65.58950378 58.12793152 64.9617157 58.66972351 C64.29962097 59.26889587 63.63752625 59.86806824 62.95536804 60.48539734 C62.25234558 61.11212341 61.54932312 61.73884949 60.82499695 62.38456726 C55.31973175 67.55865536 51.52765867 71.41270071 50.75468445 79.24784851 C49.79832738 84.01147517 47.41616696 88.06146722 45.13749695 92.32206726 C45.79870544 91.65562195 46.45991394 90.98917664 47.14115906 90.30253601 C49.58611114 87.84058268 52.03326838 85.38086562 54.48197937 82.9226532 C55.54310053 81.8564907 56.60332415 80.78943415 57.66264343 79.72148132 C59.18187918 78.19017124 60.7042711 76.66206296 62.2273407 75.13456726 C63.14378357 74.21288757 64.06022644 73.29120789 65.00444031 72.34159851 C67.13749695 70.32206726 67.13749695 70.32206726 68.13749695 70.32206726 C68.43661499 72.48251343 68.43661499 72.48251343 68.13749695 75.32206726 C66.15905762 77.9354248 66.15905762 77.9354248 63.35160828 80.75492859 C62.8427005 81.27259796 62.33379272 81.79026733 61.8094635 82.32362366 C60.12517545 84.02990332 58.42326935 85.71725888 56.7195282 87.40409851 C55.54250007 88.58449481 54.36621502 89.76563249 53.19064331 90.94747925 C50.72451815 93.42097547 48.24957685 95.88520335 45.76811218 98.3433075 C42.58773097 101.49520161 39.43032439 104.66901079 36.27917957 107.85010242 C33.85439519 110.29295299 31.4178292 112.72377067 28.97752953 115.15111351 C27.80846188 116.31684531 26.64309832 117.48630401 25.48153114 118.65950966 C23.85626512 120.29747243 22.21583362 121.91855305 20.57035828 123.53617859 C19.63992203 124.46263687 18.70948578 125.38909515 17.75085449 126.34362793 C15.13749695 128.32206726 15.13749695 128.32206726 12.29794312 128.6211853 C11.22852226 128.47312187 11.22852226 128.47312187 10.13749695 128.32206726 C14.66741491 122.88473671 19.48043911 117.85747795 24.51249695 112.88456726 C25.24855164 112.15302429 25.98460632 111.42148132 26.7429657 110.66777039 C28.53885769 108.88354003 30.3370568 107.10170602 32.13749695 105.32206726 C31.30347351 105.73198914 30.46945007 106.14191101 29.6101532 106.56425476 C28.48480164 107.10308289 27.35945007 107.64191101 26.19999695 108.19706726 C25.09784851 108.73073914 23.99570007 109.26441101 22.8601532 109.81425476 C20.12299953 111.05190479 17.64388131 111.59208416 14.6804657 112.04081726 C9.00424438 113.19593583 6.10789676 116.73734555 2.38749695 120.94706726 C1.13401579 122.34606456 -0.13121474 123.73464619 -1.40937805 125.11112976 C-2.22680481 126.03466248 -2.22680481 126.03466248 -3.06074524 126.97685242 C-5.41903134 128.73757822 -6.99023257 128.57441937 -9.86250305 128.32206726 C-5.74630469 123.40270824 -1.45839943 118.7955877 3.13749695 114.32206726 C1.5582372 113.93026618 -0.026191 113.5592599 -1.61250305 113.19706726 C-2.93508118 112.88382507 -2.93508118 112.88382507 -4.28437805 112.56425476 C-7.31867231 112.279215 -8.28182253 112.78309257 -10.86250305 114.32206726 C-12.56125379 115.82686632 -12.56125379 115.82686632 -14.1398468 117.57987976 C-15.03413391 118.51767273 -15.03413391 118.51767273 -15.94648743 119.47441101 C-17.18424431 120.79172866 -18.41602014 122.11469129 -19.64179993 123.44316101 C-24.23589023 128.2305302 -24.23589023 128.2305302 -27.8039093 128.75175476 C-28.48324524 128.60995789 -29.16258118 128.46816101 -29.86250305 128.32206726 C-25.50542684 123.04771185 -20.83240587 118.23738347 -15.9367218 113.45878601 C-13.82488013 111.49858296 -13.82488013 111.49858296 -12.86250305 109.32206726 C-13.58437805 109.19831726 -14.30625305 109.07456726 -15.05000305 108.94706726 C-17.82259654 108.33093537 -20.24380234 107.40475697 -22.86250305 106.32206726 C-23.8228949 107.32173523 -23.8228949 107.32173523 -24.8026886 108.34159851 C-27.18750967 110.81170743 -29.58325116 113.27009836 -31.98725891 115.72148132 C-33.02472915 116.78407387 -34.05766488 117.85111367 -35.08589172 118.9226532 C-36.56608289 120.46359582 -38.06192922 121.98772605 -39.5617218 123.50956726 C-40.45721741 124.43124695 -41.35271301 125.35292664 -42.27534485 126.30253601 C-44.86250305 128.32206726 -44.86250305 128.32206726 -47.69380188 128.62284851 C-48.40947327 128.5235907 -49.12514465 128.42433289 -49.86250305 128.32206726 C-45.18783968 122.69902969 -40.18484638 117.52465172 -34.98750305 112.38456726 C-33.81187805 111.21570984 -33.81187805 111.21570984 -32.61250305 110.02323914 C-30.69811725 108.12052641 -28.78142271 106.22020555 -26.86250305 104.32206726 C-28.22187391 101.46147816 -29.50770774 99.46279027 -31.86250305 97.32206726 C-35.76844801 98.90324973 -38.36408426 101.58247474 -41.2492218 104.54862976 C-41.75169937 105.0563089 -42.25417694 105.56398804 -42.7718811 106.08705139 C-44.36943358 107.70236049 -45.96010736 109.3242241 -47.55000305 110.94706726 C-49.15149104 112.57613817 -50.75440722 114.20373773 -52.36026001 115.82850647 C-53.35796149 116.83850589 -54.35297829 117.85116542 -55.34509277 118.86665344 C-56.49882647 120.03722532 -57.67812727 121.18250859 -58.86250305 122.32206726 C-59.19250305 122.32206726 -59.52250305 122.32206726 -59.86250305 122.32206726 C-60.19062805 120.18070984 -60.19062805 120.18070984 -59.86250305 117.32206726 C-58.16991654 115.19339213 -56.56564846 113.44091901 -54.61250305 111.58378601 C-54.07979797 111.05815567 -53.5470929 110.53252533 -52.99824524 109.9909668 C-51.29772197 108.31838398 -49.58063492 106.66403793 -47.86250305 105.00956726 C-46.7051167 103.87726408 -45.54885233 102.74381284 -44.39375305 101.60917664 C-41.56283964 98.83332776 -38.71694552 96.07370678 -35.86250305 93.32206726 C-38.33750305 88.86706726 -38.33750305 88.86706726 -40.86250305 84.32206726 C-41.40253967 84.8673407 -41.94257629 85.41261414 -42.49897766 85.97441101 C-44.93007493 88.42620181 -47.36497785 90.87417777 -49.80000305 93.32206726 C-50.65013977 94.18058289 -51.50027649 95.03909851 -52.37617493 95.92362976 C-53.18506165 96.73573914 -53.99394836 97.54784851 -54.8273468 98.38456726 C-55.95064392 99.5157196 -55.95064392 99.5157196 -57.09663391 100.66972351 C-58.86250305 102.32206726 -58.86250305 102.32206726 -59.86250305 102.32206726 C-60.09931946 100.05863953 -60.09931946 100.05863953 -59.86250305 97.32206726 C-58.2702179 95.38432312 -58.2702179 95.38432312 -56.07344055 93.53691101 C-55.29476624 92.84653748 -54.51609192 92.15616394 -53.71382141 91.44487 C-52.89663635 90.72372009 -52.07945129 90.00257019 -51.23750305 89.25956726 C-45.11245238 83.85075044 -45.11245238 83.85075044 -42.1789093 76.54081726 C-42.75031503 73.52207004 -43.46792393 71.05333731 -44.86250305 68.32206726 C-45.49080017 68.9582196 -45.49080017 68.9582196 -46.13179016 69.60722351 C-48.01861264 71.51474575 -49.90924469 73.41844659 -51.80000305 75.32206726 C-52.45935852 75.98980164 -53.11871399 76.65753601 -53.79804993 77.34550476 C-54.4264679 77.97714539 -55.05488586 78.60878601 -55.7023468 79.25956726 C-56.28363342 79.8460907 -56.86492004 80.43261414 -57.46382141 81.03691101 C-58.86250305 82.32206726 -58.86250305 82.32206726 -59.86250305 82.32206726 C-60.25133488 77.82587048 -60.25133488 77.82587048 -58.53315735 75.59965515 C-57.92383362 75.08652771 -57.31450989 74.57340027 -56.6867218 74.04472351 C-56.02422424 73.45529968 -55.36172668 72.86587585 -54.67915344 72.2585907 C-53.97653381 71.64016296 -53.27391418 71.02173523 -52.55000305 70.38456726 C-45.24623037 63.59169555 -42.32726912 58.51875308 -41.86250305 48.32206726 C-41.86250305 47.33206726 -41.86250305 46.34206726 -41.86250305 45.32206726 C-42.3722467 45.83704773 -42.88199036 46.3520282 -43.40718079 46.88261414 C-45.70220953 49.1983377 -48.00104473 51.51024507 -50.30000305 53.82206726 C-51.10244446 54.63288757 -51.90488586 55.44370789 -52.73164368 56.27909851 C-53.87729797 57.42958679 -53.87729797 57.42958679 -55.0460968 58.60331726 C-55.75306702 59.31552429 -56.46003723 60.02773132 -57.18843079 60.76152039 C-58.86250305 62.32206726 -58.86250305 62.32206726 -59.86250305 62.32206726 C-60.18457031 60.18457031 -60.18457031 60.18457031 -59.86250305 57.32206726 C-58.20788842 55.17430728 -56.6287784 53.40437759 -54.70942688 51.52201843 C-54.16150482 50.96533478 -53.61358276 50.40865112 -53.04905701 49.83509827 C-51.2349269 47.99896681 -49.40312003 46.1817241 -47.5695343 44.36503601 C-46.30282513 43.09495896 -45.036859 41.82414044 -43.77160645 40.5526123 C-41.11717413 37.89080759 -38.45390603 35.23825873 -35.78413391 32.59184265 C-32.36162914 29.19782484 -28.96206092 25.78185475 -25.56879139 22.35863781 C-22.95871543 19.7304994 -20.3368536 17.11438047 -17.71126366 14.50174904 C-16.45288076 13.24670302 -15.19820559 11.98792811 -13.94732094 10.72540855 C-12.19754111 8.96293838 -10.43254626 7.21728002 -8.66255188 5.47514343 C-8.14753616 4.95000656 -7.63252045 4.42486969 -7.10189819 3.88381958 C-4.71829901 1.56930165 -3.35684137 0.37768648 0 0 Z " fill="#019D58" transform="translate(59.86250305175781,-0.3220672607421875)"/>
<path d="M0 0 C1 3 1 3 0.8125 5.9375 C0.74617872 9.06185165 0.74617872 9.06185165 2.625 11.4375 C4.96147959 13.29579025 4.96147959 13.29579025 8.125 12.9375 C11.29174932 12.23305313 11.29174932 12.23305313 13 9 C13.39387788 6.67612053 13.73486085 4.34206251 14 2 C16.475 4.475 16.475 4.475 19 7 C18.01 7 17.02 7 16 7 C16 7.66 16 8.32 16 9 C16.99 9 17.98 9 19 9 C17.79618552 11.49361571 16.54571278 13.68143083 15 16 C16.98 16 18.96 16 21 16 C21 15.34 21 14.68 21 14 C20.34 13.67 19.68 13.34 19 13 C19.99 11.68 20.98 10.36 22 9 C27.28 14.28 32.56 19.56 38 25 C41.93957741 21.06221217 41.93957741 21.06221217 45.859375 17.10546875 C46.82290432 16.13280027 47.78644605 15.16014408 48.75 14.1875 C49.49056641 13.43436523 49.49056641 13.43436523 50.24609375 12.66601562 C51.47860601 11.4250615 52.73705535 10.20996878 54 9 C54.33 9 54.66 9 55 9 C55.38877937 13.48698259 55.38877937 13.48698259 53.6706543 15.75415039 C53.06133057 16.28000732 52.45200684 16.80586426 51.82421875 17.34765625 C51.16212402 17.94682861 50.5000293 18.54600098 49.81787109 19.16333008 C49.11484863 19.79005615 48.41182617 20.41678223 47.6875 21.0625 C42.18223481 26.2365881 38.39016172 30.09063344 37.6171875 37.92578125 C36.66083043 42.68940791 34.27867002 46.73939996 32 51 C32.6612085 50.33355469 33.32241699 49.66710937 34.00366211 48.98046875 C36.44861419 46.51851542 38.89577144 44.05879836 41.34448242 41.60058594 C42.40560358 40.53442344 43.4658272 39.46736689 44.52514648 38.39941406 C46.04438223 36.86810398 47.56677416 35.3399957 49.08984375 33.8125 C50.00628662 32.89082031 50.92272949 31.96914062 51.86694336 31.01953125 C54 29 54 29 55 29 C55.29911804 31.16044617 55.29911804 31.16044617 55 34 C53.02156067 36.61335754 53.02156067 36.61335754 50.21411133 39.43286133 C49.70520355 39.9505307 49.19629578 40.46820007 48.67196655 41.0015564 C46.9876785 42.70783606 45.2857724 44.39519162 43.58203125 46.08203125 C42.40500313 47.26242755 41.22871808 48.44356523 40.05314636 49.62541199 C37.5870212 52.09890821 35.1120799 54.56313609 32.63061523 57.02124023 C29.45023402 60.17313435 26.29282744 63.34694353 23.14168262 66.52803516 C20.71689824 68.97088573 18.28033225 71.40170341 15.84003258 73.82904625 C14.67096493 74.99477805 13.50560137 76.16423675 12.34403419 77.3374424 C10.71876818 78.97540517 9.07833667 80.59648579 7.43286133 82.21411133 C6.50242508 83.14056961 5.57198883 84.06702789 4.61335754 85.02156067 C2 87 2 87 -0.83955383 87.29911804 C-1.90897469 87.15105461 -1.90897469 87.15105461 -3 87 C1.52991796 81.56266945 6.34294216 76.53541069 11.375 71.5625 C12.11105469 70.83095703 12.84710938 70.09941406 13.60546875 69.34570312 C15.40136074 67.56147277 17.19955985 65.77963876 19 64 C18.16597656 64.40992187 17.33195312 64.81984375 16.47265625 65.2421875 C15.34730469 65.78101562 14.22195312 66.31984375 13.0625 66.875 C11.96035156 67.40867187 10.85820313 67.94234375 9.72265625 68.4921875 C6.98550258 69.72983752 4.50638436 70.2700169 1.54296875 70.71875 C-4.13325256 71.87386857 -7.02960019 75.41527829 -10.75 79.625 C-12.00348116 81.0239973 -13.26871169 82.41257893 -14.546875 83.7890625 C-15.36430176 84.71259521 -15.36430176 84.71259521 -16.19824219 85.65478516 C-18.55652829 87.41551096 -20.12772952 87.25235211 -23 87 C-18.88380164 82.08064098 -14.59589638 77.47352044 -10 73 C-11.04615479 72.60506348 -12.09230957 72.21012695 -13.17016602 71.80322266 C-16.91722292 70.19163211 -19.402608 68.07289396 -22.27734375 65.1484375 C-23.20224609 64.21515625 -24.12714844 63.281875 -25.08007812 62.3203125 C-25.54873291 61.83723633 -26.0173877 61.35416016 -26.50024414 60.85644531 C-27.94920686 59.3629332 -29.41155171 57.88362086 -30.87695312 56.40625 C-38 49.16791102 -38 49.16791102 -38 48 C-35.36 47.67 -32.72 47.34 -30 47 C-29.67 46.01 -29.34 45.02 -29 44 C-21.08 44 -13.16 44 -5 44 C-5 45.32 -5 46.64 -5 48 C-0.545 47.505 -0.545 47.505 4 47 C4.08150744 44.93816367 4.1394194 42.87538651 4.1875 40.8125 C4.22230469 39.66394531 4.25710937 38.51539063 4.29296875 37.33203125 C3.97622579 33.72960801 3.08533398 31.90633161 1 29 C2.32 29 3.64 29 5 29 C3.86819855 25.60459566 2.89642801 24.84642148 0.1875 22.625 C-2.94473143 19.97638061 -5.57483296 17.33460467 -8 14 C-6.5459375 13.814375 -6.5459375 13.814375 -5.0625 13.625 C-4.051875 13.41875 -3.04125 13.2125 -2 13 C-1.67 12.34 -1.34 11.68 -1 11 C-1.78375 11.04125 -2.5675 11.0825 -3.375 11.125 C-6 11 -6 11 -8 9 C-8.125 5.875 -8.125 5.875 -8 3 C-5.36 2.01 -2.72 1.02 0 0 Z " fill="#007643" transform="translate(73,41)"/>
<path d="M0 0 C1.59122681 0.01063477 1.59122681 0.01063477 3.21459961 0.02148438 C4.36895508 0.0240625 5.52331055 0.02664062 6.71264648 0.02929688 C7.91856445 0.05765625 9.12448242 0.08601563 10.36694336 0.11523438 C12.18162109 0.11136719 12.18162109 0.11136719 14.03295898 0.10742188 C20.6534783 0.18143551 20.6534783 0.18143551 23.30444336 0.61523438 C25.30444336 3.61523438 25.30444336 3.61523438 25.30444336 6.61523438 C27.61444336 6.61523438 29.92444336 6.61523438 32.30444336 6.61523438 C32.30444336 7.60523437 32.30444336 8.59523438 32.30444336 9.61523438 C31.31444336 9.94523437 30.32444336 10.27523437 29.30444336 10.61523438 C30.03920898 11.39833984 30.03920898 11.39833984 30.78881836 12.19726562 C32.78567752 15.3829765 32.63799502 17.57215256 32.55444336 21.30273438 C32.53897461 22.46160156 32.52350586 23.62046875 32.50756836 24.81445312 C32.30444336 27.61523438 32.30444336 27.61523438 31.30444336 28.61523438 C29.78516298 28.68703401 28.26276854 28.69915445 26.74194336 28.67773438 C25.9156543 28.66871094 25.08936523 28.6596875 24.23803711 28.65039062 C23.2809082 28.63298828 23.2809082 28.63298828 22.30444336 28.61523438 C22.30444336 27.29523438 22.30444336 25.97523437 22.30444336 24.61523438 C14.38444336 24.61523438 6.46444336 24.61523438 -1.69555664 24.61523438 C-2.02555664 25.93523437 -2.35555664 27.25523438 -2.69555664 28.61523438 C-5.66555664 28.61523438 -8.63555664 28.61523438 -11.69555664 28.61523438 C-11.77652894 26.17706853 -11.83602636 23.74159054 -11.88305664 21.30273438 C-11.90819336 20.61244141 -11.93333008 19.92214844 -11.95922852 19.2109375 C-12.03390163 14.05849254 -12.03390163 14.05849254 -10.18383789 11.63476562 C-9.69270508 11.29832031 -9.20157227 10.961875 -8.69555664 10.61523438 C-9.68555664 10.28523438 -10.67555664 9.95523438 -11.69555664 9.61523438 C-11.69555664 8.62523438 -11.69555664 7.63523437 -11.69555664 6.61523438 C-10.76743164 6.55335937 -9.83930664 6.49148437 -8.88305664 6.42773438 C-7.83118164 6.15960938 -6.77930664 5.89148438 -5.69555664 5.61523438 C-5.25671143 4.78572266 -4.81786621 3.95621094 -4.36572266 3.1015625 C-2.69555664 0.61523438 -2.69555664 0.61523438 0 0 Z " fill="#F0F6F3" transform="translate(45.695556640625,60.384765625)"/>
<path d="M0 0 C0.29911804 2.16044617 0.29911804 2.16044617 0 5 C-1.97843933 7.61335754 -1.97843933 7.61335754 -4.78588867 10.43286133 C-5.29479645 10.9505307 -5.80370422 11.46820007 -6.32803345 12.0015564 C-8.0123215 13.70783606 -9.7142276 15.39519162 -11.41796875 17.08203125 C-12.59499687 18.26242755 -13.77128192 19.44356523 -14.94685364 20.62541199 C-17.4129788 23.09890821 -19.8879201 25.56313609 -22.36938477 28.02124023 C-25.54976598 31.17313435 -28.70717256 34.34694353 -31.85831738 37.52803516 C-34.28310176 39.97088573 -36.71966775 42.40170341 -39.15996742 44.82904625 C-40.32903507 45.99477805 -41.49439863 47.16423675 -42.65596581 48.3374424 C-44.28123182 49.97540517 -45.92166333 51.59648579 -47.56713867 53.21411133 C-48.49757492 54.14056961 -49.42801117 55.06702789 -50.38664246 56.02156067 C-53 58 -53 58 -55.83955383 58.29911804 C-56.55250107 58.20040909 -57.2654483 58.10170013 -58 58 C-52.50568942 51.31469367 -46.4107928 45.26513085 -40.29296875 39.16015625 C-39.16036122 38.02687419 -38.0279021 36.89344379 -36.89558411 35.75987244 C-34.53625716 33.39907917 -32.17515066 31.04008452 -29.81274414 28.68237305 C-26.77835213 25.65371712 -23.74852453 22.62054068 -20.71998119 19.58603764 C-18.38931707 17.25177246 -16.05629207 14.91987869 -13.72252846 12.58871269 C-12.60338162 11.47023436 -11.48498107 10.35100879 -10.36733055 9.23103523 C-8.81393608 7.67511751 -7.25740112 6.12241339 -5.69995117 4.57055664 C-4.81425949 3.68566055 -3.92856781 2.80076447 -3.01603699 1.88905334 C-1 0 -1 0 0 0 Z " fill="#444440" transform="translate(128,70)"/>
<path d="M0 0 C0.70537399 0.1062822 1.41074799 0.21256439 2.13749695 0.32206726 C-2.07512187 5.33463207 -6.43324237 10.11710145 -11.05000305 14.75956726 C-11.70637756 15.42133972 -12.36275208 16.08311218 -13.03901672 16.76493835 C-16.71148309 20.40025485 -20.36328413 23.56644593 -24.67500305 26.44706726 C-29.32189382 29.62866109 -32.25086261 33.17925739 -35.51191711 37.74320984 C-39.78490399 43.55403903 -44.81707233 48.55832462 -49.92500305 53.63456726 C-50.78351868 54.48961853 -51.6420343 55.3446698 -52.52656555 56.22563171 C-58.71551244 62.32206726 -58.71551244 62.32206726 -59.86250305 62.32206726 C-60.18457031 60.18457031 -60.18457031 60.18457031 -59.86250305 57.32206726 C-58.20788842 55.17430728 -56.6287784 53.40437759 -54.70942688 51.52201843 C-54.16150482 50.96533478 -53.61358276 50.40865112 -53.04905701 49.83509827 C-51.2349269 47.99896681 -49.40312003 46.1817241 -47.5695343 44.36503601 C-46.30282513 43.09495896 -45.036859 41.82414044 -43.77160645 40.5526123 C-41.11717413 37.89080759 -38.45390603 35.23825873 -35.78413391 32.59184265 C-32.36162914 29.19782484 -28.96206092 25.78185475 -25.56879139 22.35863781 C-22.95871543 19.7304994 -20.3368536 17.11438047 -17.71126366 14.50174904 C-16.45288076 13.24670302 -15.19820559 11.98792811 -13.94732094 10.72540855 C-12.19754111 8.96293838 -10.43254626 7.21728002 -8.66255188 5.47514343 C-8.14753616 4.95000656 -7.63252045 4.42486969 -7.10189819 3.88381958 C-4.71829901 1.56930165 -3.35684137 0.37768648 0 0 Z " fill="#434440" transform="translate(59.86250305175781,-0.3220672607421875)"/>
<path d="M0 0 C-4.49341567 5.38177723 -9.2440943 10.39064083 -14.20703125 15.33984375 C-14.97303146 16.10680069 -15.73903168 16.87375763 -16.52824402 17.66395569 C-18.13470736 19.27109547 -19.74241795 20.87698941 -21.35131836 22.48168945 C-23.82587623 24.95084704 -26.29499643 27.42535325 -28.76367188 29.90039062 C-30.32780406 31.4638628 -31.892246 33.02702518 -33.45703125 34.58984375 C-34.19862991 35.33346664 -34.94022858 36.07708954 -35.70429993 36.84324646 C-36.38558456 37.52137894 -37.0668692 38.19951141 -37.76879883 38.89819336 C-38.67097893 39.79918007 -38.67097893 39.79918007 -39.59138489 40.71836853 C-41 42 -41 42 -42 42 C-42.27229665 39.04189278 -42.3327752 37.48688341 -40.62898254 34.99406433 C-39.98676254 34.34786636 -39.34454254 33.7016684 -38.68286133 33.03588867 C-37.95823196 32.2954985 -37.2336026 31.55510834 -36.48701477 30.7922821 C-35.69337021 30.0087587 -34.89972565 29.22523529 -34.08203125 28.41796875 C-33.27263596 27.60378983 -32.46324066 26.7896109 -31.62931824 25.95075989 C-29.91454334 24.23258223 -28.19343683 22.52070394 -26.46655273 20.81469727 C-23.82260101 18.1974988 -21.20634083 15.55474282 -18.59179688 12.90820312 C-16.92347584 11.24318611 -15.25360445 9.57972078 -13.58203125 7.91796875 C-12.79850784 7.12432419 -12.01498444 6.33067963 -11.2077179 5.51298523 C-10.46732773 4.78835587 -9.72693756 4.0637265 -8.96411133 3.31713867 C-8.31791336 2.67491867 -7.67171539 2.03269867 -7.00593567 1.37101746 C-4.51311659 -0.3327752 -2.95810722 -0.27229665 0 0 Z " fill="#444440" transform="translate(42,0)"/>
<path d="M0 0 C0.22743348 2.80658141 0.35452366 4.46084663 -1.21916199 6.8540802 C-1.79032242 7.4292186 -2.36148285 8.00435699 -2.94995117 8.59692383 C-3.59449753 9.25723099 -4.23904388 9.91753815 -4.90312195 10.59785461 C-5.60927139 11.2938829 -6.31542084 11.98991119 -7.04296875 12.70703125 C-7.76357986 13.43242599 -8.48419098 14.15782074 -9.22663879 14.90519714 C-10.75310113 16.43506098 -12.28589211 17.95863243 -13.82446289 19.47631836 C-16.1787478 21.80384727 -18.50520484 24.15680605 -20.83007812 26.51367188 C-22.3161078 27.9963975 -23.80368776 29.47757135 -25.29296875 30.95703125 C-26.33701118 32.01625542 -26.33701118 32.01625542 -27.40214539 33.09687805 C-28.06245255 33.74142441 -28.7227597 34.38597076 -29.40307617 35.05004883 C-29.97821457 35.62120926 -30.55335297 36.19236969 -31.1459198 36.78083801 C-33.53915337 38.35452366 -35.19341859 38.22743348 -38 38 C-33.76276022 32.94306941 -29.33908375 28.19158853 -24.66796875 23.53515625 C-23.6521447 22.51789711 -23.6521447 22.51789711 -22.61579895 21.48008728 C-21.19764898 20.06126167 -19.77825494 18.64367853 -18.35766602 17.22729492 C-16.17281614 15.04785248 -13.99341969 12.86305718 -11.81445312 10.67773438 C-10.43261264 9.2965538 -9.05046246 7.91568298 -7.66796875 6.53515625 C-7.0138652 5.87902847 -6.35976166 5.2229007 -5.68583679 4.54689026 C-1.11498108 0 -1.11498108 0 0 0 Z " fill="#444440" transform="translate(128,90)"/>
<path d="M0 0 C3.05623277 2.09110663 3.86463014 3.29306849 4.5625 6.9375 C3.7998726 11.08958249 2.40406682 12.55795207 -1 15 C-4.55953149 15.07119063 -6.22119455 14.7009249 -8.875 12.3125 C-10.35810604 9.26389315 -10.48891657 7.35257076 -10 4 C-7.21921757 -0.06422047 -4.81255755 -0.80209293 0 0 Z " fill="#DFEDE7" transform="translate(83,40)"/>
<path d="M0 0 C1.07507813 -0.00128906 2.15015625 -0.00257812 3.2578125 -0.00390625 C4.38960937 -0.00003906 5.52140625 0.00382812 6.6875 0.0078125 C7.81929687 0.00394531 8.95109375 0.00007813 10.1171875 -0.00390625 C11.19226563 -0.00261719 12.26734375 -0.00132813 13.375 0 C14.86580078 0.00169189 14.86580078 0.00169189 16.38671875 0.00341797 C18.6875 0.1328125 18.6875 0.1328125 19.6875 1.1328125 C19.6875 2.7828125 19.6875 4.4328125 19.6875 6.1328125 C10.7775 6.1328125 1.8675 6.1328125 -7.3125 6.1328125 C-6.00965076 -0.38143371 -6.06348029 0.00688138 0 0 Z " fill="#097A49" transform="translate(49.3125,62.8671875)"/>
<path d="M0 0 C0.33 0.99 0.66 1.98 1 3 C-2.6813226 6.70596331 -6.36585826 10.40868986 -10.0534668 14.10839844 C-11.30859766 15.36857129 -12.56283135 16.62963837 -13.81616211 17.89160156 C-15.6133934 19.70090434 -17.41378187 21.50701136 -19.21484375 23.3125 C-20.06017921 24.16557739 -20.06017921 24.16557739 -20.92259216 25.03588867 C-22.26288111 26.37637213 -23.6288462 27.69110443 -25 29 C-25.33 29 -25.66 29 -26 29 C-26.32373047 26.85864258 -26.32373047 26.85864258 -26 24 C-24.33168735 21.87118504 -22.75138817 20.1200768 -20.8203125 18.26171875 C-20.0283699 17.47327324 -20.0283699 17.47327324 -19.22042847 16.66889954 C-18.10477835 15.56297551 -16.98312313 14.46308099 -15.85595703 13.36889648 C-14.12588522 11.68835988 -12.41532437 9.9897524 -10.70703125 8.28710938 C-9.62088146 7.2150406 -8.53367716 6.14403891 -7.4453125 5.07421875 C-6.93066437 4.56493332 -6.41601624 4.05564789 -5.88577271 3.53092957 C-2.23327707 0 -2.23327707 0 0 0 Z " fill="#43443F" transform="translate(26,93)"/>
<path d="M0 0 C1.07568237 0.14453613 1.07568237 0.14453613 2.1730957 0.29199219 C-2.93139252 6.47334088 -8.50985372 12.09022097 -14.2019043 17.72949219 C-15.5921582 19.11297852 -15.5921582 19.11297852 -17.01049805 20.52441406 C-19.28036275 22.78257844 -21.55253967 25.0383616 -23.8269043 27.29199219 C-24.8169043 26.96199219 -25.8069043 26.63199219 -26.8269043 26.29199219 C-24.50158676 20.71253144 -19.74606484 16.80107473 -15.55126953 12.59082031 C-14.01749206 11.04510398 -12.50336476 9.48171516 -10.98901367 7.91699219 C-10.01295445 6.93147261 -9.03577737 5.94705864 -8.05737305 4.96386719 C-7.17460693 4.06764648 -6.29184082 3.17142578 -5.38232422 2.24804688 C-2.8269043 0.29199219 -2.8269043 0.29199219 0 0 Z " fill="#43443F" transform="translate(119.826904296875,-0.2919921875)"/>
<path d="M0 0 C0.99 0.33 1.98 0.66 3 1 C0.52653645 6.80443885 -4.43691621 10.84666409 -8.8125 15.25 C-9.71548828 16.18585938 -10.61847656 17.12171875 -11.54882812 18.0859375 C-12.42603516 18.97023438 -13.30324219 19.85453125 -14.20703125 20.765625 C-15.0060083 21.57805664 -15.80498535 22.39048828 -16.62817383 23.22753906 C-19.3604381 25.26935467 -20.6698465 25.40051996 -24 25 C-19.18132753 19.19108254 -13.98743592 13.86934448 -8.625 8.5625 C-7.79355469 7.73556641 -6.96210938 6.90863281 -6.10546875 6.05664062 C-4.0725896 4.03544469 -2.03740037 2.01663665 0 0 Z " fill="#444440" transform="translate(34,103)"/>
<path d="M0 0 C0.30078125 2.16870117 0.30078125 2.16870117 0 5 C-2.01953125 7.5871582 -2.01953125 7.5871582 -4.8125 10.30078125 C-5.30081299 10.7820195 -5.78912598 11.26325775 -6.29223633 11.75907898 C-7.85012632 13.28904505 -9.42450586 14.80068889 -11 16.3125 C-12.06103219 17.34844678 -13.1209423 18.38554414 -14.1796875 19.42382812 C-16.77358508 21.96268464 -19.38255942 24.48539649 -22 27 C-22.99 26.67 -23.98 26.34 -25 26 C-23.41579763 22.1503265 -20.95718753 19.71341435 -18.02734375 16.796875 C-17.54423233 16.3142218 -17.06112091 15.8315686 -16.56336975 15.33428955 C-15.54615946 14.32008976 -14.52653039 13.30831081 -13.50463867 12.29882812 C-11.93410245 10.74664214 -10.37180962 9.18650796 -8.81054688 7.625 C-1.14751637 0 -1.14751637 0 0 0 Z " fill="#444440" transform="translate(128,10)"/>
<path d="M0 0 C-4.37625212 5.23380697 -8.97545497 10.12876938 -13.8125 14.9375 C-14.49248047 15.62134766 -15.17246094 16.30519531 -15.87304688 17.00976562 C-16.51951172 17.65494141 -17.16597656 18.30011719 -17.83203125 18.96484375 C-18.41702393 19.5487085 -19.0020166 20.13257324 -19.60473633 20.73413086 C-21 22 -21 22 -22 22 C-22.30391087 18.92972953 -22.30970547 17.44498147 -20.51879883 14.87182617 C-19.49822388 13.84279175 -19.49822388 13.84279175 -18.45703125 12.79296875 C-17.71259766 12.04208984 -16.96816406 11.29121094 -16.20117188 10.51757812 C-15.41291016 9.74865234 -14.62464844 8.97972656 -13.8125 8.1875 C-13.04357422 7.39923828 -12.27464844 6.61097656 -11.48242188 5.79882812 C-10.73154297 5.05439453 -9.98066406 4.30996094 -9.20703125 3.54296875 C-8.5210083 2.86258545 -7.83498535 2.18220215 -7.12817383 1.48120117 C-4.55501853 -0.30970547 -3.07027047 -0.30391087 0 0 Z " fill="#444440" transform="translate(22,0)"/>
<path d="M0 0 C-0.50505209 4.28499284 -1.72035894 6.20985009 -4.78125 9.20703125 C-5.54050781 9.95791016 -6.29976562 10.70878906 -7.08203125 11.48242188 C-8.27892578 12.63581055 -8.27892578 12.63581055 -9.5 13.8125 C-10.29792969 14.60076172 -11.09585937 15.38902344 -11.91796875 16.20117188 C-17.83227137 22 -17.83227137 22 -19 22 C-19.31618173 18.89810147 -19.32079169 17.4465572 -17.47119141 14.87182617 C-16.77171387 14.18580322 -16.07223633 13.49978027 -15.3515625 12.79296875 C-14.59359375 12.04208984 -13.835625 11.29121094 -13.0546875 10.51757812 C-11.85199219 9.36418945 -11.85199219 9.36418945 -10.625 8.1875 C-9.43390625 7.00510742 -9.43390625 7.00510742 -8.21875 5.79882812 C-2.29440611 0 -2.29440611 0 0 0 Z " fill="#43443F" transform="translate(19,80)"/>
<path d="M0 0 C-3.83261765 4.68431046 -7.90925005 9.09873729 -12.125 13.4375 C-12.6396582 13.98180664 -13.15431641 14.52611328 -13.68457031 15.08691406 C-15.1953125 16.62109375 -15.1953125 16.62109375 -18 19 C-19.32 19 -20.64 19 -22 19 C-19.84002459 14.18174663 -16.3638442 10.95788576 -12.6875 7.25 C-12.02298828 6.55261719 -11.35847656 5.85523438 -10.67382812 5.13671875 C-10.02220703 4.47800781 -9.37058594 3.81929688 -8.69921875 3.140625 C-8.10971436 2.53766602 -7.52020996 1.93470703 -6.9128418 1.31347656 C-4.48014734 -0.35696328 -2.88942636 -0.24998373 0 0 Z " fill="#444440" transform="translate(102,0)"/>
<path d="M0 0 C0.54914062 0.268125 1.09828125 0.53625 1.6640625 0.8125 C-1.87723445 5.09933315 -5.5648394 9.2215703 -9.3984375 13.25 C-10.21441406 14.11496094 -11.03039063 14.97992188 -11.87109375 15.87109375 C-14.3359375 17.8125 -14.3359375 17.8125 -17.14453125 18.09765625 C-18.22927734 17.95650391 -18.22927734 17.95650391 -19.3359375 17.8125 C-15.63556432 13.31204613 -11.74537388 9.01377651 -7.7109375 4.8125 C-7.01037231 4.0548938 -7.01037231 4.0548938 -6.2956543 3.28198242 C-2.86646811 -0.2300844 -2.86646811 -0.2300844 0 0 Z " fill="#444440" transform="translate(49.3359375,110.1875)"/>
<path d="M0 0 C0.29483328 3.03355809 0.34520864 4.52137878 -1.46875 7.03637695 C-2.47421875 8.00256958 -2.47421875 8.00256958 -3.5 8.98828125 C-4.221875 9.69404297 -4.94375 10.39980469 -5.6875 11.12695312 C-6.450625 11.84818359 -7.21375 12.56941406 -8 13.3125 C-8.763125 14.05306641 -9.52625 14.79363281 -10.3125 15.55664062 C-12.19760032 17.38283156 -14.09335569 19.19635759 -16 21 C-16.66 20.67 -17.32 20.34 -18 20 C-17.42414577 16.35224731 -16.0402958 14.67524267 -13.4375 12.109375 C-12.72335938 11.40039062 -12.00921875 10.69140625 -11.2734375 9.9609375 C-10.52320312 9.23132812 -9.77296875 8.50171875 -9 7.75 C-8.24976562 7.00492188 -7.49953125 6.25984375 -6.7265625 5.4921875 C-1.15390339 0 -1.15390339 0 0 0 Z " fill="#444440" transform="translate(128,30)"/>
<path d="M0 0 C0 0.99 0 1.98 0 3 C-1.98 3.33 -3.96 3.66 -6 4 C-6 5.98 -6 7.96 -6 10 C-4.02 10.66 -2.04 11.32 0 12 C-0.33 12.99 -0.66 13.98 -1 15 C-7.40703902 14.51644989 -7.40703902 14.51644989 -9.9375 12.3125 C-11.33817538 9.26397123 -11.4842732 7.32073048 -11 4 C-8.02080717 -0.52837311 -5.15974216 -0.39690324 0 0 Z " fill="#E1EEE9" transform="translate(72,40)"/>
<path d="M0 0 C0.38671875 2.07421875 0.38671875 2.07421875 0 5 C-1.78279074 7.55525691 -3.95368685 9.65097854 -6.1875 11.8125 C-7.0547168 12.7087207 -7.0547168 12.7087207 -7.93945312 13.62304688 C-12.26865775 17.90333394 -12.26865775 17.90333394 -15.92578125 18.38671875 C-16.95251953 18.19529297 -16.95251953 18.19529297 -18 18 C-14.2698595 13.46334263 -10.32946434 9.22058878 -6.1875 5.0625 C-5.69531982 4.56580811 -5.20313965 4.06911621 -4.69604492 3.55737305 C-1.12375366 0 -1.12375366 0 0 0 Z " fill="#444440" transform="translate(128,110)"/>
<path d="M0 0 C0.26268081 2.93184654 0.35654721 4.49060115 -1.36108398 6.94458008 C-1.98313721 7.54681396 -2.60519043 8.14904785 -3.24609375 8.76953125 C-3.91833984 9.43017578 -4.59058594 10.09082031 -5.28320312 10.77148438 C-5.99412109 11.44501953 -6.70503906 12.11855469 -7.4375 12.8125 C-8.14455078 13.50537109 -8.85160156 14.19824219 -9.58007812 14.91210938 C-14.81834975 20 -14.81834975 20 -16 20 C-16.26268081 17.06815346 -16.35654721 15.50939885 -14.63891602 13.05541992 C-14.01686279 12.45318604 -13.39480957 11.85095215 -12.75390625 11.23046875 C-12.08166016 10.56982422 -11.40941406 9.90917969 -10.71679688 9.22851562 C-10.00587891 8.55498047 -9.29496094 7.88144531 -8.5625 7.1875 C-7.50192383 6.14819336 -7.50192383 6.14819336 -6.41992188 5.08789062 C-1.18165025 0 -1.18165025 0 0 0 Z " fill="#444440" transform="translate(16,62)"/>
<path d="M0 0 C-3.39855857 4.09569879 -6.90418504 8.0711872 -10.5625 11.9375 C-11.64724609 13.09572266 -11.64724609 13.09572266 -12.75390625 14.27734375 C-15.40795265 16.31288194 -16.7350428 16.37297402 -20 16 C-16.60144143 11.90430121 -13.09581496 7.9288128 -9.4375 4.0625 C-8.35275391 2.90427734 -8.35275391 2.90427734 -7.24609375 1.72265625 C-4.59204735 -0.31288194 -3.2649572 -0.37297402 0 0 Z " fill="#444440" transform="translate(82,0)"/>
<path d="M0 0 C0.26648711 2.94246185 0.36087241 4.4903637 -1.37695312 6.94458008 C-2.31958008 7.84793091 -2.31958008 7.84793091 -3.28125 8.76953125 C-3.95800781 9.43017578 -4.63476562 10.09082031 -5.33203125 10.77148438 C-6.04746094 11.44501953 -6.76289062 12.11855469 -7.5 12.8125 C-8.21542969 13.50537109 -8.93085937 14.19824219 -9.66796875 14.91210938 C-11.43460421 16.61985699 -13.21182487 18.31486688 -15 20 C-15.57202148 18.11621094 -15.57202148 18.11621094 -16 16 C-14.84765625 14.140625 -14.84765625 14.140625 -13.0625 12.25 C-12.10150391 11.22132812 -12.10150391 11.22132812 -11.12109375 10.171875 C-10.42113281 9.45515625 -9.72117187 8.7384375 -9 8 C-8.26910156 7.24203125 -7.53820312 6.4840625 -6.78515625 5.703125 C-1.19326241 0 -1.19326241 0 0 0 Z " fill="#434440" transform="translate(128,50)"/>
<path d="M0 0 C-2.37514342 2.52037796 -4.77821529 5.01227346 -7.1875 7.5 C-8.19780273 8.57314453 -8.19780273 8.57314453 -9.22851562 9.66796875 C-9.88916016 10.34472656 -10.54980469 11.02148438 -11.23046875 11.71875 C-12.13381958 12.66137695 -12.13381958 12.66137695 -13.05541992 13.62304688 C-15.5096363 15.36087241 -17.05753815 15.26648711 -20 15 C-5.86956522 -1.95652174 -5.86956522 -1.95652174 0 0 Z " fill="#434440" transform="translate(70,113)"/>
<path d="M0 0 C8.58 0 17.16 0 26 0 C26.66 1.65 27.32 3.3 28 5 C27.01 6.485 27.01 6.485 26 8 C25.67 6.35 25.34 4.7 25 3 C21.06251542 2.97101184 17.12505821 2.95320536 13.1875 2.9375 C12.06794922 2.92912109 10.94839844 2.92074219 9.79492188 2.91210938 C8.72177734 2.90888672 7.64863281 2.90566406 6.54296875 2.90234375 C5.55321045 2.89710693 4.56345215 2.89187012 3.54370117 2.88647461 C0.87607266 2.88930041 0.87607266 2.88930041 -2 4 C-1.34 2.68 -0.68 1.36 0 0 Z " fill="#BAD9CB" transform="translate(43,61)"/>
<path d="M0 0 C2.125 0.375 2.125 0.375 4 1 C4.625 3.8125 4.625 3.8125 5 7 C4.01 8.485 4.01 8.485 3 10 C1.68 10 0.36 10 -1 10 C-2.38125018 7.23749964 -2.19079306 5.05268901 -2 2 C-1.34 1.34 -0.68 0.68 0 0 Z " fill="#158152" transform="translate(79,42)"/>
<path d="M0 0 C2.9375 0.25 2.9375 0.25 6 1 C8.32579101 4.48868651 8.41865457 5.89718519 8 10 C6.5 12.375 6.5 12.375 5 14 C4.01 13.67 3.02 13.34 2 13 C2.350625 12.46375 2.70125 11.9275 3.0625 11.375 C4.32868536 8.16733041 3.99549067 6.2708979 3 3 C1.04836882 1.56362302 1.04836882 1.56362302 -1 1 C-0.67 0.67 -0.34 0.34 0 0 Z " fill="#F6FAF8" transform="translate(79,40)"/>
<path d="M0 0 C1.65 0.33 3.3 0.66 5 1 C4.814375 1.763125 4.62875 2.52625 4.4375 3.3125 C3.77180827 6.08967375 3.77180827 6.08967375 5 9 C3.02 9 1.04 9 -1 9 C0.20381448 6.50638429 1.45428722 4.31856917 3 2 C2.01 2 1.02 2 0 2 C0 1.34 0 0.68 0 0 Z " fill="#BDDBCE" transform="translate(89,48)"/>
<path d="M0 0 C1.98 0 3.96 0 6 0 C6.33 0.99 6.66 1.98 7 3 C5.02 3 3.04 3 1 3 C0.67 2.01 0.34 1.02 0 0 Z " fill="#0B7B4B" transform="translate(37,74)"/>
<path d="M0 0 C1.98 0 3.96 0 6 0 C7.125 2.3125 7.125 2.3125 8 5 C7.01 6.485 7.01 6.485 6 8 C5.9071875 6.824375 5.9071875 6.824375 5.8125 5.625 C5.544375 4.75875 5.27625 3.8925 5 3 C2.52363988 1.62533375 2.52363988 1.62533375 0 1 C0 0.67 0 0.34 0 0 Z " fill="#D2E7DE" transform="translate(63,61)"/>
<path d="M0 0 C1.98 0 3.96 0 6 0 C6 0.66 6 1.32 6 2 C3.69 2.33 1.38 2.66 -1 3 C-0.67 2.01 -0.34 1.02 0 0 Z " fill="#0A7B4A" transform="translate(69,74)"/>
<path d="M0 0 C1.65 1.65 3.3 3.3 5 5 C4.01 5 3.02 5 2 5 C1.67 5.66 1.34 6.32 1 7 C0 6 0 6 -0.0625 2.9375 C-0.041875 1.968125 -0.02125 0.99875 0 0 Z " fill="#097E4B" transform="translate(87,43)"/>
<path d="M0 0 C0.99 0.495 0.99 0.495 2 1 C1.01 1.495 1.01 1.495 0 2 C0 1.34 0 0.68 0 0 Z " fill="#444440" transform="translate(0,0)"/>
</svg>
