<?xml version="1.0" standalone="no"?>
<!DOCTYPE svg PUBLIC "-//W3C//DTD SVG 20010904//EN"
 "http://www.w3.org/TR/2001/REC-SVG-20010904/DTD/svg10.dtd">
<svg version="1.0" xmlns="http://www.w3.org/2000/svg"
 width="800.000000pt" height="800.000000pt" viewBox="0 0 800.000000 800.000000"
 preserveAspectRatio="xMidYMid meet">
<metadata>
Created by potrace 1.16, written by Peter Selinger 2001-2019
</metadata>
<g transform="translate(0.000000,800.000000) scale(0.100000,-0.100000)"
fill="#000000" stroke="none">
<path d="M3800 6123 c-686 -70 -1283 -449 -1633 -1035 -134 -224 -220 -459
-274 -748 -25 -135 -25 -544 0 -680 44 -235 123 -469 219 -650 314 -591 861
-989 1528 -1112 157 -29 554 -32 700 -5 228 43 414 103 605 197 564 278 977
793 1124 1403 51 212 56 257 56 507 -1 266 -15 376 -80 599 -171 594 -607
1093 -1179 1349 -193 86 -430 150 -638 172 -87 9 -351 11 -428 3z m446 -138
c157 -20 242 -40 391 -90 264 -88 516 -236 707 -415 203 -190 335 -365 447
-590 203 -406 261 -877 163 -1318 -73 -327 -243 -666 -447 -887 l-46 -50 -625
625 c-552 551 -623 626 -604 632 123 36 174 55 240 88 299 152 497 407 570
734 27 125 22 371 -12 491 -24 91 -67 193 -97 233 l-20 27 -896 3 c-566 1
-904 -1 -921 -7 -38 -15 -93 -130 -129 -268 l-13 -52 -159 160 -160 160 47 44
c122 111 334 248 498 320 181 81 417 145 595 164 131 14 354 12 471 -4z
m-1504 -822 l196 -198 1 -84 c1 -46 10 -123 20 -171 96 -440 446 -765 892
-831 l78 -11 3 -72 c2 -39 0 -192 -3 -341 -5 -250 -7 -275 -29 -334 -32 -89
-114 -207 -183 -262 -87 -70 -168 -104 -368 -154 -101 -26 -189 -51 -196 -57
-16 -13 -17 -80 -1 -96 9 -9 211 -12 849 -12 922 0 863 -4 861 62 0 17 -7 37
-14 44 -7 7 -94 33 -193 58 -209 52 -237 63 -327 123 -114 75 -202 198 -241
336 -18 63 -20 108 -23 370 -2 163 0 297 4 297 4 0 297 -291 652 -646 l645
-645 -50 -46 c-195 -178 -486 -337 -769 -418 -239 -68 -554 -93 -791 -61 -489
65 -911 286 -1243 651 -230 254 -390 564 -466 907 -135 611 26 1249 437 1731
27 31 52 57 56 57 3 0 95 -89 203 -197z m2113 148 c40 -79 67 -205 72 -341 l5
-136 -143 -68 c-175 -84 -213 -96 -302 -96 -125 0 -168 19 -416 183 -289 192
-330 209 -488 208 -112 -1 -158 -13 -296 -79 l-117 -56 -50 49 c-49 49 -50 51
-44 95 9 59 50 204 69 241 l16 29 839 0 839 0 16 -29z m-1105 -412 c30 -14
150 -89 266 -166 116 -77 238 -151 270 -163 72 -28 240 -38 324 -21 30 6 106
36 169 66 62 30 115 55 117 55 7 0 -28 -88 -62 -155 -141 -277 -387 -454 -710
-509 -29 -5 -51 16 -444 409 l-414 414 94 45 c115 54 120 55 240 52 78 -1 105
-6 150 -27z m-230 -514 c418 -419 408 -403 226 -350 -258 75 -463 247 -585
491 -22 43 -47 107 -57 142 -17 61 -17 63 2 77 10 8 24 15 29 15 6 0 179 -169
385 -375z m514 -1430 c38 -73 144 -187 225 -241 l66 -44 -325 0 -325 0 62 40
c78 51 191 172 229 244 16 31 31 56 34 56 3 0 18 -25 34 -55z"/>
</g>
</svg>
