<?xml version="1.0" standalone="no"?>
<!DOCTYPE svg PUBLIC "-//W3C//DTD SVG 20010904//EN"
 "http://www.w3.org/TR/2001/REC-SVG-20010904/DTD/svg10.dtd">
<svg version="1.0" xmlns="http://www.w3.org/2000/svg"
 width="1600.000000pt" height="1690.000000pt" viewBox="0 0 1600.000000 1690.000000"
 preserveAspectRatio="xMidYMid meet">
<metadata>
Created by potrace 1.16, written by Peter Selinger 2001-2019
</metadata>
<g transform="translate(0.000000,1690.000000) scale(0.100000,-0.100000)"
fill="#000000" stroke="none">
<path d="M6581 12389 c-113 -19 -226 -95 -298 -200 -40 -58 -107 -190 -139
-276 -90 -238 -130 -483 -121 -738 l6 -150 -92 -45 c-77 -38 -107 -60 -187
-140 -82 -81 -103 -109 -143 -190 -72 -144 -87 -219 -87 -424 0 -184 10 -248
57 -365 14 -36 37 -83 50 -104 20 -32 22 -41 11 -54 -10 -12 -14 -108 -18
-425 l-5 -409 -453 -2 -452 -2 0 1458 0 1458 -25 24 -24 25 -310 0 -310 0 -20
-26 -21 -27 0 -3162 0 -3162 24 -22 c24 -23 25 -23 333 -22 l308 1 23 26 22
25 0 1455 0 1454 728 0 c400 0 936 0 1192 0 357 0 471 3 490 13 14 7 30 28 37
47 15 44 17 321 2 373 -18 67 -34 69 -395 64 l-314 -5 0 254 0 254 1550 0
1550 0 -2 -252 -3 -252 -329 -4 c-184 -2 -337 -7 -347 -13 -33 -17 -41 -75
-37 -256 4 -229 -6 -217 201 -220 83 -2 626 -3 1205 -3 l1052 0 0 -1454 0
-1453 21 -27 20 -26 313 0 313 0 21 23 22 23 0 3163 0 3162 -25 24 -24 25
-306 0 -306 0 -24 -25 -25 -24 0 -1458 0 -1458 -93 0 c-50 1 -255 2 -454 3
l-363 2 0 407 c0 355 -2 409 -16 424 -14 16 -13 20 9 56 13 21 36 68 50 104
47 117 57 181 57 365 0 205 -15 280 -87 424 -40 81 -61 109 -143 190 -79 80
-111 103 -191 144 l-95 48 7 51 c28 194 -11 527 -87 753 -34 102 -132 306
-175 365 -64 87 -150 148 -254 181 -40 12 -2802 19 -2874 7z m2874 -177 c72
-33 133 -104 193 -224 109 -221 160 -428 169 -689 3 -92 3 -179 -1 -193 l-6
-26 -150 0 c-137 0 -150 1 -150 18 0 10 -7 45 -15 77 -51 201 -196 357 -395
426 -81 27 -255 31 -336 7 -211 -65 -385 -255 -417 -457 l-11 -71 -1072 0
c-968 0 -1072 2 -1078 16 -3 9 -6 75 -6 147 0 261 62 530 171 743 78 154 137
213 239 240 35 10 358 12 1430 11 l1385 -2 50 -23z m-4905 -3597 l0 -3055
-195 0 -195 0 0 3055 0 3055 195 0 195 0 0 -3055z m7290 0 l0 -3055 -195 0
-195 0 0 3055 0 3055 195 0 195 0 0 -3055z m-2743 2816 c122 -58 226 -188 248
-313 l7 -38 -430 0 -430 0 12 53 c38 160 172 294 326 327 80 17 196 4 267 -29z
m706 -522 c142 -21 308 -123 396 -243 96 -131 121 -223 121 -448 0 -150 -2
-175 -25 -245 -61 -190 -192 -329 -384 -407 l-76 -31 -1835 0 -1835 0 -82 33
c-185 75 -319 218 -378 405 -22 70 -25 95 -25 245 0 225 25 318 118 445 86
116 239 215 374 242 84 17 3520 21 3631 4z m-3828 -1465 c79 -37 161 -59 253
-69 l62 -7 0 -251 0 -252 -255 3 -255 3 0 349 0 350 63 -46 c34 -26 94 -62
132 -80z m4241 -570 c-3 -7 -84 -12 -255 -13 l-251 -2 0 255 0 255 58 6 c81 9
137 22 216 52 65 24 207 111 223 136 8 12 17 -669 9 -689z m-3211 -254 l0 -85
-1147 -3 -1148 -2 0 90 0 90 1148 -2 1147 -3 0 -85z m4285 0 l0 -90 -1147 2
-1148 3 -3 74 c-2 41 -1 80 2 88 4 11 201 13 1151 13 l1145 0 0 -90z"/>
<path d="M6210 10603 c-59 -9 -128 -38 -177 -74 -178 -133 -203 -398 -53 -562
113 -124 309 -159 460 -82 59 30 131 106 167 175 24 47 28 69 31 153 4 91 2
101 -26 161 -51 109 -140 188 -241 216 -48 13 -121 18 -161 13z m163 -185 c52
-29 102 -101 110 -159 28 -207 -212 -339 -365 -201 -51 46 -77 102 -78 165 -1
170 183 277 333 195z"/>
<path d="M9652 10595 c-80 -18 -124 -44 -192 -116 -78 -82 -103 -149 -98 -265
6 -145 56 -232 181 -314 104 -68 247 -75 366 -18 72 34 153 123 182 199 31 82
33 200 5 274 -69 181 -255 282 -444 240z m155 -161 c160 -53 204 -257 82 -372
-104 -97 -257 -77 -342 44 -26 37 -29 50 -29 118 1 83 16 120 69 166 67 59
135 72 220 44z"/>
<path d="M6880 10458 c-27 -30 -27 -89 1 -114 20 -18 53 -19 1119 -19 1066 0
1099 1 1119 19 28 26 29 88 1 116 -20 20 -33 20 -1120 20 l-1099 0 -21 -22z"/>
<path d="M6880 10100 c-23 -23 -27 -77 -7 -104 7 -10 33 -22 58 -26 58 -11
2081 -12 2138 -1 25 5 51 17 58 27 20 27 16 81 -7 104 -20 20 -33 20 -1120 20
-1087 0 -1100 0 -1120 -20z"/>
<path d="M0 450 l0 -450 8000 0 8000 0 0 450 0 450 -8000 0 -8000 0 0 -450z
m1677 156 c13 -15 23 -38 23 -52 0 -30 -17 -64 -31 -64 -6 0 -7 6 -3 12 5 7
-5 3 -20 -10 -36 -27 -56 -28 -90 -1 -20 15 -26 29 -26 57 0 45 7 56 44 75 39
21 76 14 103 -17z m10841 -78 c14 -12 16 -54 2 -63 -7 -4 -5 -14 4 -27 37 -52
-46 -106 -96 -61 -24 21 -23 33 2 33 11 0 20 -5 20 -11 0 -6 10 -9 23 -7 14 2
22 10 22 23 0 13 -8 21 -22 23 -29 4 -30 32 -3 32 25 0 37 27 21 43 -9 9 -16
9 -31 -1 -28 -17 -51 -15 -43 4 12 32 67 38 101 12z m289 -4 c22 -22 25 -32
20 -71 -5 -50 -28 -78 -69 -88 -39 -10 -37 17 2 32 35 13 40 32 7 26 -56 -11
-79 88 -27 114 34 17 37 17 67 -13z m303 0 c12 -11 12 -20 3 -44 -7 -18 -7
-32 -2 -36 15 -9 10 -46 -8 -66 -21 -24 -65 -23 -88 2 -23 26 -12 37 19 20 14
-7 32 -10 41 -6 23 9 14 40 -13 44 -27 4 -29 32 -2 32 13 0 20 7 20 19 0 25
-18 37 -33 22 -15 -15 -50 -14 -45 2 12 35 76 41 108 11z m430 14 c0 -7 -14
-21 -30 -30 -38 -22 -38 -36 -1 -30 59 8 80 -85 25 -110 -53 -24 -102 32 -89
100 7 36 32 63 68 74 12 3 23 6 25 7 1 1 2 -5 2 -11z m229 1 c64 -23 79 -116
24 -159 -73 -57 -169 23 -132 112 10 25 30 40 75 58 1 0 15 -5 33 -11z m329
-6 c2 -8 -5 -13 -17 -13 -12 0 -21 6 -21 16 0 18 31 15 38 -3z m142 -77 l0
-95 -45 3 c-57 3 -70 16 -70 67 0 47 26 73 63 64 19 -5 22 -2 22 25 0 20 5 30
15 30 12 0 15 -17 15 -94z m710 64 c0 -27 2 -30 25 -24 33 8 53 -9 61 -52 10
-54 -14 -82 -71 -82 l-45 1 0 94 c0 76 3 93 15 93 10 0 15 -10 15 -30z m-2942
-67 c-3 -74 -6 -88 -20 -91 -16 -3 -18 6 -18 87 0 85 1 91 20 91 20 0 21 -5
18 -87z m147 62 c57 -56 18 -143 -68 -152 l-47 -6 0 92 0 91 45 0 c35 0 52 -6
70 -25z m197 -65 c-3 -70 -7 -90 -18 -90 -11 0 -14 16 -14 71 0 66 -1 70 -20
64 -28 -9 -26 19 3 33 49 24 52 19 49 -78z m328 76 c0 -31 -69 -166 -84 -166
-20 0 -21 -3 14 75 17 37 30 71 30 76 0 5 -18 9 -40 9 -22 0 -40 5 -40 10 0 6
27 10 60 10 46 0 60 -3 60 -14z m270 5 c0 -5 -9 -13 -20 -16 -11 -3 -24 -14
-29 -24 -8 -15 -5 -16 25 -13 28 4 35 0 46 -22 27 -61 -33 -118 -86 -82 -22
14 -26 24 -26 68 0 39 5 57 22 75 21 23 68 32 68 14z m320 -1 c0 -24 -70 -165
-84 -168 -23 -5 -20 11 14 78 17 33 30 64 30 70 0 5 -20 10 -45 10 -25 0 -45
5 -45 10 0 6 28 10 65 10 36 0 65 -4 65 -10z m137 -2 c-2 -8 -17 -12 -35 -10
-27 3 -32 0 -32 -17 0 -16 6 -21 24 -21 27 0 56 -33 56 -62 0 -25 -36 -58 -63
-58 -25 0 -65 35 -54 47 4 3 18 1 31 -6 30 -16 46 -7 46 25 0 25 -6 27 -54 24
-26 -2 -28 1 -23 22 4 12 7 33 7 46 0 20 5 22 51 22 36 0 49 -4 46 -12z m633
-3 c0 -11 -11 -15 -40 -15 -33 0 -40 -3 -40 -20 0 -16 7 -20 35 -20 24 0 35
-5 35 -15 0 -10 -11 -15 -35 -15 -34 0 -35 -1 -35 -40 0 -33 -3 -40 -20 -40
-19 0 -20 7 -20 90 l0 90 60 0 c47 0 60 -3 60 -15z m694 -1 c19 -18 20 -28 6
-54 -7 -13 -7 -21 0 -25 18 -11 11 -53 -12 -69 -12 -9 -42 -16 -65 -16 l-43 0
0 90 0 90 49 0 c32 0 55 -6 65 -16z m-14374 -103 c0 -84 -3 -102 -21 -125 -29
-37 -89 -37 -118 0 -31 39 -28 94 6 128 29 29 66 32 71 4 2 -10 -6 -19 -20
-23 -28 -9 -38 -23 -38 -51 0 -33 25 -49 55 -36 24 11 25 15 25 107 0 88 1 95
20 95 19 0 20 -7 20 -99z m13738 12 c-2 -55 -6 -68 -20 -71 -16 -3 -18 5 -18
67 0 65 2 71 20 71 19 0 21 -5 18 -67z m263 57 c15 -9 19 -22 19 -69 l0 -59
-46 2 c-33 1 -50 6 -58 19 -15 24 3 51 38 55 15 2 26 10 26 18 0 12 -8 13 -35
8 -38 -7 -48 7 -17 25 22 13 48 14 73 1z m147 -2 c18 -15 16 -128 -2 -128 -11
0 -16 15 -18 53 -3 44 -6 52 -23 52 -17 0 -20 -8 -23 -52 -2 -38 -7 -53 -18
-53 -11 0 -14 15 -14 69 l0 68 43 0 c23 1 48 -4 55 -9z m364 -5 c13 -12 18
-30 18 -68 l0 -52 -45 -1 c-43 0 -75 16 -75 38 0 17 32 40 56 40 15 0 24 6 24
16 0 13 -7 15 -35 10 -38 -7 -47 6 -17 23 25 15 53 13 74 -6z m282 1 c11 -10
16 -34 16 -68 l0 -53 -42 0 c-50 -1 -68 11 -68 42 0 23 17 35 51 35 10 0 19 7
19 15 0 13 -7 15 -35 9 -38 -7 -48 7 -17 25 25 15 58 13 76 -5z m82 -29 l11
-40 13 43 c9 29 19 42 32 42 23 0 23 1 -15 -100 -26 -68 -37 -86 -55 -88 -26
-4 -29 15 -6 33 16 11 15 17 -5 75 -25 77 -26 82 -4 78 10 -2 22 -19 29 -43z
m186 28 c10 -9 18 -27 18 -40 0 -20 -5 -23 -41 -23 -28 0 -39 -4 -36 -12 2 -7
17 -13 33 -13 38 0 45 -17 12 -29 -33 -11 -52 -4 -74 28 -40 63 34 138 88 89z
m78 -23 c6 -22 13 -40 15 -40 2 0 9 18 15 40 6 24 17 40 25 40 19 0 18 -22 -4
-85 -13 -35 -23 -50 -36 -50 -13 0 -23 15 -36 50 -22 63 -23 85 -4 85 8 0 19
-16 25 -40z m181 30 c15 -9 19 -22 19 -69 l0 -59 -46 2 c-33 1 -50 6 -58 19
-15 24 3 51 40 57 39 7 26 26 -16 22 -34 -3 -34 -3 -16 17 21 23 47 27 77 11z
m-14241 -19 c0 -17 8 -20 48 -23 39 -3 47 -6 47 -23 0 -17 -8 -20 -47 -23
l-48 -3 0 -38 c0 -59 40 -68 61 -14 5 13 15 23 22 21 20 -7 19 -43 -3 -71 -26
-33 -65 -35 -97 -5 -21 19 -23 30 -23 110 0 81 2 88 20 88 13 0 20 -7 20 -19z
m-946 -36 c3 -9 -4 -21 -19 -31 -22 -14 -25 -24 -25 -75 0 -52 -2 -59 -20 -59
-18 0 -20 7 -20 67 0 55 4 71 22 90 25 26 53 30 62 8z m164 -1 c30 -21 28 -34
-13 -74 -30 -30 -35 -31 -41 -15 -4 10 -2 26 5 36 9 15 8 19 -4 19 -8 0 -19
-9 -25 -21 -9 -16 -8 -26 5 -45 13 -19 24 -24 61 -24 32 0 46 -5 51 -16 8 -22
-11 -31 -61 -29 -56 3 -80 17 -96 54 -15 38 -7 75 25 107 28 28 61 31 93 8z
m207 -9 c18 -17 25 -36 26 -65 1 -22 2 -46 3 -52 1 -7 -2 -22 -7 -32 -9 -19
-10 -19 -23 -1 -7 10 -13 37 -12 60 1 52 -6 65 -36 65 -52 0 -60 -71 -11 -90
29 -11 33 -40 6 -40 -33 0 -51 11 -66 41 -23 43 -18 77 14 110 36 36 73 37
106 4z m175 15 c14 -7 25 -7 38 1 31 20 71 3 88 -36 19 -46 18 -119 -1 -135
-21 -18 -25 -11 -33 61 -6 55 -10 64 -27 64 -18 0 -20 -8 -23 -63 -3 -53 -6
-63 -20 -60 -13 2 -18 17 -22 63 -4 52 -8 60 -26 63 -17 2 -23 -3 -28 -30 -3
-18 -4 -42 -2 -54 6 -28 -8 -48 -28 -41 -11 5 -16 19 -16 51 0 96 43 146 100
116z m323 -4 c7 -17 -11 -36 -34 -36 -12 0 -18 -12 -21 -50 -6 -62 -21 -80
-65 -80 -27 0 -34 4 -31 17 2 10 12 19 23 22 27 5 35 19 35 64 0 24 7 44 20
57 23 23 65 27 73 6z m262 -77 c0 -72 -2 -84 -17 -87 -16 -3 -18 6 -18 81 0
46 3 87 7 91 19 19 28 -7 28 -85z m170 80 c6 0 21 3 35 6 18 5 34 0 50 -13 22
-18 25 -28 25 -88 0 -57 -3 -69 -17 -72 -15 -3 -18 4 -18 46 0 63 -7 82 -31
82 -17 0 -19 -8 -19 -60 0 -45 -4 -62 -15 -67 -24 -8 -29 2 -27 55 2 55 -8 75
-34 70 -15 -2 -20 -15 -24 -63 -4 -47 -9 -61 -22 -63 -16 -3 -18 5 -18 67 0
64 2 71 27 91 19 15 35 20 53 15 14 -3 30 -6 35 -6z m279 0 c14 -7 27 -17 30
-24 5 -14 -50 -85 -66 -85 -18 0 -20 31 -3 50 17 19 17 20 -3 20 -15 0 -24 -8
-28 -27 -9 -36 7 -57 47 -63 22 -3 35 -11 37 -22 3 -15 -4 -18 -42 -18 -36 0
-48 5 -65 26 -35 44 -25 115 20 140 30 17 41 17 73 3z m274 -5 c26 -18 29 -49
6 -58 -11 -4 -22 1 -31 14 -8 11 -21 20 -29 20 -20 0 -38 -43 -30 -73 8 -34
32 -41 57 -16 21 21 49 19 49 -4 0 -25 -25 -47 -60 -53 -85 -14 -131 104 -65
169 21 21 74 22 103 1z m179 -6 c33 -31 33 -109 -2 -143 -33 -33 -70 -32 -106
4 -23 23 -29 38 -29 71 0 78 82 119 137 68z m179 11 c8 -7 14 -6 19 1 11 17
70 12 89 -9 13 -15 16 -34 14 -92 -3 -66 -5 -74 -23 -74 -18 0 -21 8 -25 70
-4 62 -7 70 -25 70 -18 0 -21 -8 -25 -70 -4 -62 -7 -70 -25 -70 -18 0 -21 8
-25 70 -4 62 -7 70 -25 70 -18 0 -21 -8 -25 -70 -4 -62 -7 -70 -25 -70 -18 0
-20 8 -23 79 -2 44 -1 84 2 91 5 14 106 18 122 4z m-519 -135 c8 -21 -19 -46
-40 -38 -17 6 -23 35 -10 47 12 13 44 7 50 -9z"/>
<path d="M1576 594 c-20 -19 -21 -68 -2 -84 8 -6 25 -10 38 -8 29 4 39 54 13
65 -19 7 -38 -15 -28 -31 4 -6 8 -5 11 2 5 17 22 15 22 -3 0 -21 -27 -30 -45
-15 -21 17 -19 44 5 65 28 25 66 7 79 -37 6 -23 9 -27 10 -12 1 31 -36 74 -64
74 -13 0 -31 -7 -39 -16z"/>
<path d="M12751 506 c-18 -21 -9 -51 14 -51 15 0 20 7 20 29 0 33 -16 44 -34
22z"/>
<path d="M13491 450 c-7 -4 -11 -18 -9 -31 5 -35 42 -33 46 2 3 28 -16 43 -37
29z"/>
<path d="M13692 510 c-26 -25 -29 -75 -6 -108 21 -31 87 -31 108 0 53 75 -37
169 -102 108z m78 -15 c7 -9 9 -19 5 -23 -4 -4 -10 -1 -12 6 -7 19 -41 14 -48
-8 -7 -21 10 -60 25 -60 5 0 13 8 19 17 5 10 13 14 17 10 15 -15 -23 -40 -50
-33 -22 5 -26 12 -26 44 0 57 40 83 70 47z"/>
<path d="M14164 456 c-11 -28 0 -61 21 -61 16 0 20 7 20 35 0 25 -5 36 -18 38
-9 2 -20 -3 -23 -12z"/>
<path d="M14954 456 c-11 -28 0 -61 21 -61 16 0 20 7 20 35 0 25 -5 36 -18 38
-9 2 -20 -3 -23 -12z"/>
<path d="M12080 450 c0 -62 5 -68 41 -50 14 8 19 21 19 48 0 41 -14 62 -42 62
-15 0 -18 -9 -18 -60z"/>
<path d="M12900 445 c-16 -19 -3 -57 18 -53 22 4 28 53 8 61 -8 3 -20 0 -26
-8z"/>
<path d="M14663 513 c-7 -3 -13 -14 -13 -24 0 -16 6 -20 27 -17 16 2 29 10 31
19 3 17 -23 29 -45 22z"/>
<path d="M14654 425 c-8 -19 3 -35 25 -35 23 0 41 19 34 36 -7 18 -52 18 -59
-1z"/>
<path d="M14317 419 c-19 -11 -14 -29 8 -29 14 0 28 27 17 34 -4 2 -15 0 -25
-5z"/>
<path d="M14828 423 c-25 -6 -23 -33 2 -33 13 0 20 7 20 20 0 11 -1 19 -2 19
-2 -1 -11 -3 -20 -6z"/>
<path d="M15097 413 c-13 -12 -7 -23 13 -23 11 0 20 7 20 15 0 15 -21 21 -33
8z"/>
<path d="M15367 464 c-14 -14 -6 -24 19 -24 16 0 24 5 22 13 -5 14 -31 21 -41
11z"/>
<path d="M15630 404 c0 -9 7 -14 17 -12 25 5 28 28 4 28 -12 0 -21 -6 -21 -16z"/>
<path d="M2452 398 c-20 -20 -15 -76 7 -88 38 -20 65 35 41 81 -12 22 -30 25
-48 7z"/>
</g>
</svg>
