<?xml version="1.0" encoding="UTF-8"?>
<svg version="1.1" xmlns="http://www.w3.org/2000/svg" width="500" height="500">
<path d="M0 0 C165 0 330 0 500 0 C500 165 500 330 500 500 C335 500 170 500 0 500 C0 335 0 170 0 0 Z " fill="#FEFEFE" transform="translate(0,0)"/>
<path d="M0 0 C1.38541992 0.00483398 1.38541992 0.00483398 2.79882812 0.00976562 C4.17844727 -0.0144043 4.17844727 -0.0144043 5.5859375 -0.0390625 C6.91141602 -0.0400293 6.91141602 -0.0400293 8.26367188 -0.04101562 C9.07312256 -0.04399658 9.88257324 -0.04697754 10.71655273 -0.05004883 C13.46468338 0.42700288 14.18216932 1.11028665 15.86132812 3.32226562 C16.23047161 5.86222363 16.23047161 5.86222363 16.22209167 8.96000671 C16.22621567 10.13369812 16.23033966 11.30738953 16.23458862 12.51664734 C16.2238028 13.80561417 16.21301697 15.09458099 16.2019043 16.42260742 C16.20105815 17.79249045 16.20153292 19.16237484 16.20323181 20.53225708 C16.2040937 24.253154 16.18643684 27.97376168 16.16550994 31.69459128 C16.1467753 35.58233413 16.14499524 39.47008336 16.14143372 43.35786438 C16.13210378 50.72080813 16.10747723 58.08361849 16.07738525 65.44650346 C16.04387069 73.82849872 16.02736265 82.2105003 16.01229894 90.59254587 C15.98092845 107.83586516 15.92754636 125.0790462 15.86132812 142.32226562 C21.14132813 142.32226562 26.42132813 142.32226562 31.86132812 142.32226562 C31.86132812 136.38226563 31.86132812 130.44226563 31.86132812 124.32226562 C30.21132812 123.66226563 28.56132812 123.00226563 26.86132812 122.32226562 C22.68836282 116.11995027 23.33862114 109.27579291 23.36035156 102.10009766 C23.36132574 99.82781924 23.31961762 97.55890274 23.27539062 95.28710938 C23.27018382 93.8300851 23.26749543 92.3730492 23.26757812 90.91601562 C23.26048828 89.60310547 23.25339844 88.29019531 23.24609375 86.9375 C24.04621597 82.23582943 25.53825674 80.67354112 28.86132812 77.32226562 C32.96265747 74.54035618 37.10345781 75.18232826 41.86132812 75.32226562 C42.03220947 74.66597168 42.20309082 74.00967773 42.37915039 73.33349609 C44.25610542 66.27265898 46.41956308 59.35393217 48.79882812 52.44726562 C49.13333984 51.44179687 49.46785156 50.43632812 49.8125 49.40039062 C52.03894492 42.93125972 53.99544491 38.23285444 59.86132812 34.32226562 C62.33615604 34.11822356 64.69941503 34.02853185 67.17504883 34.03173828 C67.91687408 34.02502106 68.65869934 34.01830383 69.42300415 34.01138306 C71.87777388 33.99237091 74.33227057 33.98847701 76.78710938 33.98632812 C78.49480807 33.97990146 80.20250566 33.9731732 81.91020203 33.96615601 C85.49216259 33.95417452 89.07402666 33.95047598 92.65600586 33.95166016 C97.23936548 33.95186318 101.82210384 33.92458293 106.40531635 33.89011574 C109.93386153 33.86784246 113.46225744 33.86382277 116.99086571 33.86487961 C118.68011805 33.86252345 120.36937449 33.85369904 122.05855751 33.83821487 C124.42595066 33.81854942 126.79200772 33.82439451 129.15942383 33.83642578 C130.20000694 33.81956726 130.20000694 33.81956726 131.26161194 33.80236816 C136.22293873 33.86622258 139.02594678 35.24220412 142.86132812 38.32226562 C144.15527344 40.20922852 144.15527344 40.20922852 144.93945312 42.23242188 C145.40641602 43.41215576 145.40641602 43.41215576 145.8828125 44.61572266 C146.20572266 45.50888184 146.52863281 46.40204102 146.86132812 47.32226562 C147.24095703 48.35593262 147.62058594 49.38959961 148.01171875 50.45458984 C149.24271138 53.87959317 150.43223227 57.31657528 151.61132812 60.75976562 C152.02253906 61.94248047 152.43375 63.12519531 152.85742188 64.34375 C155.86132812 73.06106598 155.86132812 73.06106598 155.86132812 75.32226562 C156.44140625 75.27585937 157.02148438 75.22945313 157.61914062 75.18164062 C163.28060299 74.92005491 166.39510205 75.49407185 170.86132812 79.32226562 C174.25615627 82.79799525 174.30101553 86.08559602 174.25976562 90.72070312 C174.26407089 91.7895726 174.26407089 91.7895726 174.26846313 92.8800354 C174.27050029 94.38454993 174.2649947 95.88909115 174.25244141 97.39355469 C174.23642858 99.68290291 174.2522756 101.97047322 174.27148438 104.25976562 C174.26950095 105.72591532 174.26565523 107.19206392 174.25976562 108.65820312 C174.26583832 109.33652191 174.27191101 110.0148407 174.27816772 110.7137146 C174.21131528 115.28993913 173.43152724 118.51786546 170.86132812 122.32226562 C168.38632812 123.31226563 168.38632812 123.31226563 165.86132812 124.32226562 C165.86132812 130.26226562 165.86132812 136.20226562 165.86132812 142.32226562 C171.14132812 142.32226562 176.42132813 142.32226562 181.86132812 142.32226562 C181.85133537 139.7201545 181.85133537 139.7201545 181.84114075 137.06547546 C181.78042168 120.74622145 181.73521975 104.42699472 181.70589161 88.10765362 C181.69041213 79.71698665 181.66930205 71.32640392 181.63500977 62.93579102 C181.60514039 55.62389741 181.58576099 48.3120648 181.57906264 41.00011188 C181.57514618 37.12722749 181.56591974 33.25451761 181.54413795 29.38168907 C181.52381155 25.73819066 181.51748644 22.09493904 181.52200508 18.45138931 C181.52078315 16.47311002 181.50462091 14.49485775 181.48806763 12.51664734 C181.49219162 11.34295593 181.49631561 10.16926453 181.50056458 8.96000671 C181.4977992 7.93773829 181.49503382 6.91546988 181.49218464 5.86222363 C181.86132812 3.32226562 181.86132812 3.32226562 183.24982738 1.49317646 C185.40504476 -0.07279699 186.81062131 -0.05076873 189.45898438 -0.04101562 C190.34263672 -0.04037109 191.22628906 -0.03972656 192.13671875 -0.0390625 C193.51633789 -0.01489258 193.51633789 -0.01489258 194.92382812 0.00976562 C195.84744141 0.00654297 196.77105469 0.00332031 197.72265625 0 C204.59427639 0.05521389 204.59427639 0.05521389 206.86132812 2.32226562 C207.05468038 5.05555841 207.12175748 7.68714314 207.10183716 10.42129517 C207.10354601 11.26829935 207.10525486 12.11530354 207.10701549 12.98797452 C207.11032485 15.84249071 207.09928302 18.6967748 207.08837891 21.55126953 C207.0878151 23.59094741 207.08813074 25.6306257 207.08926392 27.67030334 C207.08983964 33.22169603 207.07804987 38.77300294 207.064116 44.32437563 C207.05164515 50.12065481 207.05044103 55.91693579 207.04806519 61.71322632 C207.04183967 72.69567022 207.02541439 83.67807447 207.00536621 94.66050088 C206.98304049 107.1609085 206.97202216 119.66131797 206.96197534 132.16174054 C206.94104907 157.88193758 206.90585232 183.60209938 206.86132812 209.32226562 C207.97507812 209.28101563 209.08882812 209.23976563 210.23632812 209.19726562 C213.86132812 209.32226562 213.86132812 209.32226562 215.86132812 211.32226562 C216.31002474 214.61470167 216.18541055 217.94024305 216.17382812 221.25976562 C216.18994141 222.17951172 216.20605469 223.09925781 216.22265625 224.046875 C216.22330078 224.93052734 216.22394531 225.81417969 216.22460938 226.72460938 C216.22759033 227.53406006 216.23057129 228.34351074 216.23364258 229.17749023 C215.7624797 231.89169735 215.00289083 232.62628745 212.86132812 234.32226562 C210.8056488 234.69648743 210.8056488 234.69648743 208.42163086 234.69458008 C207.527379 234.70080887 206.63312714 234.70703766 205.71177673 234.7134552 C204.74921463 234.70424545 203.78665253 234.69503571 202.79492188 234.68554688 C201.80508804 234.68604538 200.81525421 234.68654388 199.79542542 234.6870575 C197.70319613 234.68471691 195.61096403 234.67498929 193.51879883 234.65844727 C190.30785085 234.63483198 187.09773161 234.6378893 183.88671875 234.64453125 C181.85611482 234.63895539 179.8255144 234.63184609 177.79492188 234.62304688 C176.83033554 234.62395828 175.86574921 234.62486969 174.87193298 234.62580872 C173.98083328 234.6162767 173.08973358 234.60674469 172.17163086 234.59692383 C171.38570053 234.59231644 170.5997702 234.58770905 169.7900238 234.58296204 C167.86132812 234.32226562 167.86132812 234.32226562 165.86132812 232.32226562 C165.60253906 230.10742187 165.60253906 230.10742187 165.59570312 227.38476562 C165.593125 226.40765625 165.59054687 225.43054688 165.58789062 224.42382812 C165.595625 223.4003125 165.60335937 222.37679687 165.61132812 221.32226562 C165.60359375 220.29875 165.59585938 219.27523437 165.58789062 218.22070312 C165.59046875 217.24359375 165.59304688 216.26648438 165.59570312 215.25976562 C165.59795898 214.36128906 165.60021484 213.4628125 165.60253906 212.53710938 C165.86132812 210.32226562 165.86132812 210.32226562 167.86132812 208.32226562 C172.48132813 208.32226562 177.10132813 208.32226562 181.86132812 208.32226562 C181.86132812 189.51226562 181.86132812 170.70226562 181.86132812 151.32226562 C177.63707031 151.35707031 173.4128125 151.391875 169.06054688 151.42773438 C165.69363421 151.44702543 162.32673714 151.46329444 158.95980072 151.47751617 C155.4048098 151.49336252 151.85003321 151.51454019 148.29516602 151.54858398 C144.21693845 151.5873957 140.13893811 151.60197165 136.06054688 151.61523438 C134.14794319 151.63846016 134.14794319 151.63846016 132.19670105 151.66215515 C131.01570328 151.66238174 129.83470551 151.66260834 128.61791992 151.6628418 C127.05571968 151.67283455 127.05571968 151.67283455 125.46195984 151.68302917 C122.86132812 151.32226562 122.86132812 151.32226562 120.98591614 149.96504211 C119.86132812 148.32226562 119.86132812 148.32226562 120.11132812 145.69726562 C120.86132812 143.32226562 120.86132812 143.32226562 121.86132812 142.32226562 C123.27702936 142.23574952 124.69692313 142.21521659 126.11523438 142.22460938 C127.39624023 142.22944336 127.39624023 142.22944336 128.703125 142.234375 C129.60095703 142.24275391 130.49878906 142.25113281 131.42382812 142.25976562 C132.32552734 142.26427734 133.22722656 142.26878906 134.15625 142.2734375 C136.39130402 142.28526318 138.62632415 142.30319924 140.86132812 142.32226562 C140.86132812 136.71226562 140.86132812 131.10226562 140.86132812 125.32226562 C113.14132812 125.32226562 85.42132813 125.32226562 56.86132812 125.32226562 C56.86132812 130.93226563 56.86132812 136.54226563 56.86132812 142.32226562 C61.70798923 142.24324737 61.70798923 142.24324737 66.55419922 142.14208984 C68.32420087 142.12745393 70.09405267 142.22298049 71.86132812 142.32226562 C72.52132812 142.98226562 73.18132812 143.64226562 73.86132812 144.32226562 C73.53161333 147.61941355 73.23864423 148.94494952 70.86132812 151.32226562 C68.5328064 151.56277466 68.5328064 151.56277466 65.58544922 151.54931641 C64.46904053 151.54907471 63.35263184 151.54883301 62.20239258 151.54858398 C61.02507568 151.53835205 59.84775879 151.52812012 58.63476562 151.51757812 C57.01598511 151.51455688 57.01598511 151.51455688 55.36450195 151.51147461 C51.32173429 151.50098717 47.27902707 151.47306474 43.23632812 151.44726562 C34.20257813 151.40601563 25.16882813 151.36476563 15.86132812 151.32226562 C15.86132812 170.13226563 15.86132812 188.94226563 15.86132812 208.32226562 C20.15132812 208.32226562 24.44132812 208.32226562 28.86132812 208.32226562 C29.85132813 208.98226562 30.84132812 209.64226562 31.86132812 210.32226562 C32.23364258 212.53710938 32.23364258 212.53710938 32.22460938 215.25976562 C32.22396484 216.236875 32.22332031 217.21398437 32.22265625 218.22070312 C32.20654297 219.24421875 32.19042969 220.26773438 32.17382812 221.32226562 C32.17705078 222.34578125 32.18027344 223.36929688 32.18359375 224.42382812 C32.12821974 232.05537401 32.12821974 232.05537401 29.86132812 234.32226562 C27.93263245 234.58296204 27.93263245 234.58296204 25.55102539 234.59692383 C24.65992569 234.60645584 23.76882599 234.61598785 22.85072327 234.62580872 C21.88613693 234.62489731 20.9215506 234.6239859 19.92773438 234.62304688 C18.93885727 234.627332 17.94998016 234.63161713 16.93113708 234.6360321 C14.83715583 234.64178199 12.74315459 234.64227084 10.64916992 234.63793945 C7.44024652 234.63478178 4.23224665 234.6582228 1.0234375 234.68359375 C-1.00846237 234.68586685 -3.04036474 234.68657019 -5.07226562 234.68554688 C-6.51610878 234.6993615 -6.51610878 234.6993615 -7.98912048 234.7134552 C-8.88337234 234.70722641 -9.77762421 234.70099762 -10.69897461 234.69458008 C-11.48570053 234.6952095 -12.27242645 234.69583893 -13.08299255 234.69648743 C-15.6651134 234.22643069 -16.55091744 233.3751992 -18.13867188 231.32226562 C-18.51098633 229.17749023 -18.51098633 229.17749023 -18.50195312 226.72460938 C-18.50130859 225.84095703 -18.50066406 224.95730469 -18.5 224.046875 C-18.48388672 223.12712891 -18.46777344 222.20738281 -18.45117188 221.25976562 C-18.45439453 220.33615234 -18.45761719 219.41253906 -18.4609375 218.4609375 C-18.40572361 211.58931736 -18.40572361 211.58931736 -16.13867188 209.32226562 C-12.51367187 209.19726562 -12.51367187 209.19726562 -9.13867188 209.32226562 C-9.14051546 208.25728662 -9.14235905 207.19230762 -9.1442585 206.09505653 C-9.18860136 180.21589414 -9.22149662 154.33673665 -9.24229622 128.45754433 C-9.25262135 115.94271115 -9.26670525 103.42790303 -9.28955078 90.91308594 C-9.30944686 80.00881191 -9.3223793 69.10455601 -9.32684886 58.20026433 C-9.32946267 52.42324732 -9.3356318 46.6462822 -9.35013199 40.86928177 C-9.36365621 35.43736168 -9.36790503 30.00551512 -9.36488724 24.57357979 C-9.36543972 22.57484475 -9.36944775 20.57610738 -9.37708282 18.57738686 C-9.38696344 15.85859778 -9.38466614 13.14009011 -9.37918091 10.42129517 C-9.38500659 9.62169455 -9.39083227 8.82209394 -9.39683449 7.998263 C-9.35427407 0.2490243 -6.95137111 0.0558547 0 0 Z " fill="#464648" transform="translate(151.138671875,132.677734375)"/>
<path d="M0 0 C0.88365234 0.00064453 1.76730469 0.00128906 2.67773438 0.00195312 C3.59748047 0.01806641 4.51722656 0.03417969 5.46484375 0.05078125 C6.38845703 0.04755859 7.31207031 0.04433594 8.26367188 0.04101562 C15.13529202 0.09622952 15.13529202 0.09622952 17.40234375 2.36328125 C17.595696 5.09657404 17.66277311 7.72815876 17.64285278 10.46231079 C17.64456163 11.30931498 17.64627048 12.15631917 17.64803112 13.02899015 C17.65134047 15.88350633 17.64029864 18.73779042 17.62939453 21.59228516 C17.62883073 23.63196304 17.62914637 25.67164133 17.63027954 27.71131897 C17.63085527 33.26271165 17.61906549 38.81401857 17.60513163 44.36539125 C17.59266078 50.16167044 17.59145665 55.95795141 17.58908081 61.75424194 C17.58285529 72.73668584 17.56643001 83.7190901 17.54638183 94.70151651 C17.52405612 107.20192412 17.51303779 119.70233359 17.50299096 132.20275617 C17.48206469 157.9229532 17.44686795 183.64311501 17.40234375 209.36328125 C18.51609375 209.32203125 19.62984375 209.28078125 20.77734375 209.23828125 C24.40234375 209.36328125 24.40234375 209.36328125 26.40234375 211.36328125 C26.85104036 214.65571729 26.72642617 217.98125868 26.71484375 221.30078125 C26.73095703 222.22052734 26.74707031 223.14027344 26.76367188 224.08789062 C26.76431641 224.97154297 26.76496094 225.85519531 26.765625 226.765625 C26.76860596 227.57507568 26.77158691 228.38452637 26.7746582 229.21850586 C26.30349533 231.93271298 25.54390645 232.66730308 23.40234375 234.36328125 C21.34666443 234.73750305 21.34666443 234.73750305 18.96264648 234.7355957 C18.06839462 234.74182449 17.17414276 234.74805328 16.25279236 234.75447083 C15.29023026 234.74526108 14.32766815 234.73605133 13.3359375 234.7265625 C12.34610367 234.727061 11.35626984 234.72755951 10.33644104 234.72807312 C8.24421175 234.72573253 6.15197966 234.71600492 4.05981445 234.69946289 C0.84886647 234.67584761 -2.36125276 234.67890493 -5.57226562 234.68554688 C-7.60286956 234.67997102 -9.63346998 234.67286172 -11.6640625 234.6640625 C-12.62864883 234.66497391 -13.59323517 234.66588531 -14.58705139 234.66682434 C-15.47815109 234.65729233 -16.36925079 234.64776031 -17.28735352 234.63793945 C-18.07328384 234.63333206 -18.85921417 234.62872467 -19.66896057 234.62397766 C-21.59765625 234.36328125 -21.59765625 234.36328125 -23.59765625 232.36328125 C-23.85644531 230.1484375 -23.85644531 230.1484375 -23.86328125 227.42578125 C-23.86714844 225.96011719 -23.86714844 225.96011719 -23.87109375 224.46484375 C-23.86335938 223.44132813 -23.855625 222.4178125 -23.84765625 221.36328125 C-23.85925781 219.82800781 -23.85925781 219.82800781 -23.87109375 218.26171875 C-23.86851562 217.28460938 -23.8659375 216.3075 -23.86328125 215.30078125 C-23.86102539 214.40230469 -23.85876953 213.50382813 -23.85644531 212.578125 C-23.59765625 210.36328125 -23.59765625 210.36328125 -21.59765625 208.36328125 C-16.97765625 208.36328125 -12.35765625 208.36328125 -7.59765625 208.36328125 C-7.59765625 189.55328125 -7.59765625 170.74328125 -7.59765625 151.36328125 C-11.82191406 151.39808594 -16.04617188 151.43289063 -20.3984375 151.46875 C-23.76535017 151.48804105 -27.13224724 151.50431007 -30.49918365 151.5185318 C-34.05417458 151.53437815 -37.60895116 151.55555582 -41.16381836 151.58959961 C-45.24204592 151.62841132 -49.32004626 151.64298727 -53.3984375 151.65625 C-54.67350662 151.67173386 -55.94857574 151.68721771 -57.26228333 151.70317078 C-58.4432811 151.70339737 -59.62427887 151.70362396 -60.84106445 151.70385742 C-62.40326469 151.71385017 -62.40326469 151.71385017 -63.99702454 151.7240448 C-66.59765625 151.36328125 -66.59765625 151.36328125 -68.47306824 150.00605774 C-69.59765625 148.36328125 -69.59765625 148.36328125 -69.34765625 145.73828125 C-68.59765625 143.36328125 -68.59765625 143.36328125 -67.59765625 142.36328125 C-66.18195502 142.27676514 -64.76206125 142.25623221 -63.34375 142.265625 C-62.06274414 142.27045898 -62.06274414 142.27045898 -60.75585938 142.27539062 C-59.85802734 142.28376953 -58.96019531 142.29214844 -58.03515625 142.30078125 C-57.13345703 142.30529297 -56.23175781 142.30980469 -55.30273438 142.31445312 C-53.06768036 142.32627881 -50.83266023 142.34421487 -48.59765625 142.36328125 C-48.59765625 139.39328125 -48.59765625 136.42328125 -48.59765625 133.36328125 C-44.59765625 132.36328125 -44.59765625 132.36328125 -41.59765625 133.36328125 C-41.54867188 133.97816406 -41.4996875 134.59304688 -41.44921875 135.2265625 C-41.37445313 136.03480469 -41.2996875 136.84304688 -41.22265625 137.67578125 C-41.15304687 138.47628906 -41.0834375 139.27679688 -41.01171875 140.1015625 C-40.70201199 142.63552566 -40.70201199 142.63552566 -38.59765625 145.36328125 C-36.53840486 146.08710592 -36.53840486 146.08710592 -34.59765625 146.36328125 C-34.12585938 145.62271484 -34.12585938 145.62271484 -33.64453125 144.8671875 C-33.2165625 144.22652344 -32.78859375 143.58585938 -32.34765625 142.92578125 C-31.72117187 141.96865234 -31.72117187 141.96865234 -31.08203125 140.9921875 C-29.32516748 139.06426068 -28.13675822 138.74848689 -25.59765625 138.36328125 C-25.59765625 139.68328125 -25.59765625 141.00328125 -25.59765625 142.36328125 C-19.65765625 142.36328125 -13.71765625 142.36328125 -7.59765625 142.36328125 C-7.60431808 140.6285405 -7.61097992 138.89379974 -7.61784363 137.10649109 C-7.67856269 120.78723708 -7.72376463 104.46801035 -7.75309277 88.14866924 C-7.76857224 79.75800228 -7.78968232 71.36741955 -7.82397461 62.97680664 C-7.85384399 55.66491303 -7.87322339 48.35308042 -7.87992173 41.0411275 C-7.8838382 37.16824312 -7.89306464 33.29553324 -7.91484642 29.4227047 C-7.93517283 25.77920628 -7.94149794 22.13595467 -7.93697929 18.49240494 C-7.93820123 16.51412565 -7.95436346 14.53587338 -7.97091675 12.55766296 C-7.96679276 11.38397156 -7.96266876 10.21028015 -7.9584198 9.00102234 C-7.96118518 7.97875392 -7.96395056 6.9564855 -7.96679974 5.90323925 C-7.59765625 3.36328125 -7.59765625 3.36328125 -6.20915699 1.53419209 C-4.05393962 -0.03178137 -2.64836306 -0.0097531 0 0 Z " fill="#4A4A4C" transform="translate(340.59765625,132.63671875)"/>
<path d="M0 0 C1.09369904 -0.00563965 2.18739807 -0.0112793 3.3142395 -0.01708984 C4.51950287 -0.01304138 5.72476624 -0.00899292 6.96655273 -0.00482178 C8.23159637 -0.00832642 9.49664001 -0.01183105 10.80001831 -0.01544189 C14.27516872 -0.02457849 17.7502007 -0.02101647 21.22535324 -0.01468372 C24.85727006 -0.00963027 28.48917655 -0.01431335 32.12109375 -0.01745605 C38.22096584 -0.02109762 44.32078955 -0.01629164 50.4206543 -0.0067749 C57.47912632 0.00411004 64.53748281 0.00058459 71.59595203 -0.01042771 C77.64948677 -0.01949519 83.70298666 -0.02078852 89.75652599 -0.01555037 C93.37498558 -0.01242769 96.99339081 -0.01202946 100.61184692 -0.01862335 C104.64421463 -0.02545785 108.67638226 -0.0159929 112.70874023 -0.00482178 C114.51663528 -0.01089447 114.51663528 -0.01089447 116.36105347 -0.01708984 C118.00160202 -0.00863037 118.00160202 -0.00863037 119.67529297 0 C121.10662819 0.00113108 121.10662819 0.00113108 122.56687927 0.002285 C124.83764648 0.25396729 124.83764648 0.25396729 126.83764648 2.25396729 C127.235211 6.39005181 127.16671271 10.53149298 127.15332031 14.68511963 C127.15015815 16.74636584 127.17362351 18.80617968 127.19897461 20.86724854 C127.19961914 22.16017822 127.20026367 23.45310791 127.20092773 24.78521729 C127.20390869 25.97695557 127.20688965 27.16869385 127.20996094 28.39654541 C127.08709717 29.33949463 126.9642334 30.28244385 126.83764648 31.25396729 C123.50943349 33.47277594 122.47117636 33.50624721 118.59300232 33.5146637 C116.963013 33.52529091 116.963013 33.52529091 115.3000946 33.53613281 C114.10777725 33.5336554 112.9154599 33.53117798 111.68701172 33.52862549 C110.43157562 33.53373642 109.17613953 33.53884735 107.88265991 33.54411316 C104.43856868 33.55751271 100.99458711 33.55808097 97.55047488 33.55554986 C94.67746439 33.55448117 91.80447618 33.5593607 88.93147045 33.56415528 C82.15644516 33.57525296 75.3814753 33.57568588 68.60644531 33.56964111 C61.60982958 33.56359486 54.61341462 33.57592813 47.61683315 33.59721118 C41.61423025 33.61480128 35.61169142 33.62083281 29.60906368 33.61757344 C26.02188188 33.61575687 22.4348434 33.618434 18.84768486 33.63228798 C14.85133789 33.64714493 10.85524881 33.63791895 6.85888672 33.62628174 C5.66454514 33.63392548 4.47020355 33.64156921 3.2396698 33.64944458 C2.15583008 33.64243027 1.07199036 33.63541595 -0.04469299 33.62818909 C-0.99024331 33.62835683 -1.93579363 33.62852457 -2.90999699 33.6286974 C-3.65327464 33.50503646 -4.3965523 33.38137552 -5.16235352 33.25396729 C-7.53302812 29.69795538 -7.41966781 28.12310547 -7.42797852 23.90631104 C-7.43055664 22.66172119 -7.43313477 21.41713135 -7.43579102 20.13482666 C-7.42805664 18.83351807 -7.42032227 17.53220947 -7.41235352 16.19146729 C-7.42008789 14.8862915 -7.42782227 13.58111572 -7.43579102 12.23638916 C-7.43321289 10.99308838 -7.43063477 9.7497876 -7.42797852 8.46881104 C-7.42572266 7.32533203 -7.4234668 6.18185303 -7.42114258 5.00372314 C-6.9444094 -0.06179171 -4.44874401 0.00351551 0 0 Z " fill="#F9F9F9" transform="translate(190.162353515625,216.74603271484375)"/>
<path d="M0 0 C1.04659538 -0.01248528 1.04659538 -0.01248528 2.11433411 -0.02522278 C4.42662086 -0.04936826 6.73862585 -0.05809985 9.05102539 -0.06469727 C10.65523872 -0.07365954 12.25945117 -0.0827813 13.86366272 -0.09205627 C17.22879063 -0.10856075 20.59381887 -0.11624912 23.95898438 -0.11914062 C28.27489196 -0.12452877 32.58986546 -0.16221913 36.905509 -0.20788479 C40.21948178 -0.23759982 43.53322801 -0.24486294 46.84732246 -0.24586678 C48.43859706 -0.25007953 50.02987169 -0.26255608 51.62101555 -0.28338432 C53.84570256 -0.31018906 56.06820372 -0.30550891 58.29296875 -0.29296875 C60.19253578 -0.30057472 60.19253578 -0.30057472 62.13047791 -0.30833435 C65.21118164 0.30639648 65.21118164 0.30639648 67.07064819 2.66119385 C68.31736483 5.55266375 69.44829426 8.43353968 70.47290039 11.41186523 C70.86928711 12.55977539 71.26567383 13.70768555 71.67407227 14.89038086 C72.07819336 16.07954102 72.48231445 17.26870117 72.89868164 18.49389648 C73.3144043 19.6946582 73.73012695 20.89541992 74.15844727 22.13256836 C77.21118164 31.03011108 77.21118164 31.03011108 77.21118164 33.30639648 C45.53118164 33.30639648 13.85118164 33.30639648 -18.78881836 33.30639648 C-9.01511068 0.07579039 -9.01511068 0.07579039 0 0 Z " fill="#FCFCFC" transform="translate(220.788818359375,174.693603515625)"/>
<path d="M0 0 C0.74182526 -0.00671722 1.48365051 -0.01343445 2.24795532 -0.02035522 C4.70272505 -0.03936738 7.15722175 -0.04326127 9.61206055 -0.04541016 C11.31975924 -0.05183682 13.02745683 -0.05856508 14.7351532 -0.06558228 C18.31711376 -0.07756376 21.89897784 -0.0812623 25.48095703 -0.08007812 C30.06431665 -0.07987511 34.64705501 -0.10715535 39.23026752 -0.14162254 C42.7588127 -0.16389582 46.28720861 -0.16791551 49.81581688 -0.16685867 C51.50506922 -0.16921483 53.19432567 -0.17803925 54.88350868 -0.19352341 C57.25090183 -0.21318886 59.61695889 -0.20734377 61.984375 -0.1953125 C63.02495811 -0.21217102 63.02495811 -0.21217102 64.08656311 -0.22937012 C69.0478899 -0.16551571 71.85089795 1.21046584 75.6862793 4.29052734 C76.98022461 6.17749023 76.98022461 6.17749023 77.7644043 8.20068359 C78.23136719 9.38041748 78.23136719 9.38041748 78.70776367 10.58398438 C79.03067383 11.47714355 79.35358398 12.37030273 79.6862793 13.29052734 C80.0659082 14.32419434 80.44553711 15.35786133 80.83666992 16.42285156 C82.06766255 19.84785489 83.25718344 23.28483699 84.4362793 26.72802734 C84.84749023 27.91074219 85.25870117 29.09345703 85.68237305 30.31201172 C88.6862793 39.0293277 88.6862793 39.0293277 88.6862793 41.29052734 C89.26635742 41.24412109 89.84643555 41.19771484 90.4440918 41.14990234 C96.10555416 40.88831662 99.22005322 41.46233357 103.6862793 45.29052734 C107.08110745 48.76625697 107.1259667 52.05385774 107.0847168 56.68896484 C107.08902206 57.75783432 107.08902206 57.75783432 107.09341431 58.84829712 C107.09545147 60.35281165 107.08994587 61.85735287 107.07739258 63.36181641 C107.06137976 65.65116463 107.07722677 67.93873494 107.09643555 70.22802734 C107.09445212 71.69417704 107.0906064 73.16032564 107.0847168 74.62646484 C107.09078949 75.30478363 107.09686218 75.98310242 107.1031189 76.68197632 C107.03626645 81.25820085 106.25647841 84.48612718 103.6862793 88.29052734 C102.0362793 88.95052734 100.3862793 89.61052734 98.6862793 90.29052734 C98.6862793 96.23052734 98.6862793 102.17052734 98.6862793 108.29052734 C98.3562793 108.29052734 98.0262793 108.29052734 97.6862793 108.29052734 C97.62569336 107.00275391 97.56510742 105.71498047 97.50268555 104.38818359 C97.41829683 102.70978576 97.333648 101.03140098 97.2487793 99.35302734 C97.20946289 98.50289063 97.17014648 97.65275391 97.12963867 96.77685547 C97.08774414 95.96796875 97.04584961 95.15908203 97.00268555 94.32568359 C96.96602783 93.57681885 96.92937012 92.8279541 96.89160156 92.05639648 C96.86856867 90.26591408 96.86856867 90.26591408 95.6862793 89.29052734 C95.64534992 86.95755301 95.64386206 84.6234751 95.6862793 82.29052734 C96.3462793 81.96052734 97.0062793 81.63052734 97.6862793 81.29052734 C97.73567045 77.19714083 97.7719943 73.10386936 97.79614258 69.01025391 C97.80620807 67.61731953 97.81986163 66.22440632 97.8371582 64.83154297 C97.8613815 62.83098375 97.87168743 60.83027119 97.8815918 58.82958984 C97.89206543 57.62512207 97.90253906 56.4206543 97.91333008 55.1796875 C97.99088744 52.16211239 97.99088744 52.16211239 95.6862793 50.29052734 C93.42915415 49.97622155 93.42915415 49.97622155 90.7762146 50.01205444 C89.73852432 50.00089096 88.70083405 49.98972748 87.63169861 49.97822571 C86.48874832 49.97606552 85.34579803 49.97390533 84.16821289 49.97167969 C82.96823166 49.96163406 81.76825043 49.95158844 80.53190613 49.9412384 C77.23663729 49.91559485 73.94154164 49.89877125 70.64621305 49.88581038 C67.20416548 49.87020629 63.76220585 49.84340747 60.32022095 49.81777954 C53.80024097 49.77094336 47.28024454 49.73422277 40.76018202 49.70110667 C33.33821538 49.66291937 25.91633696 49.61350039 18.49444461 49.56312251 C3.22511988 49.45973073 -12.04425425 49.37049401 -27.3137207 49.29052734 C-27.3137207 48.96052734 -27.3137207 48.63052734 -27.3137207 48.29052734 C-26.1999707 48.18740234 -25.0862207 48.08427734 -23.9387207 47.97802734 C-22.7424707 47.75115234 -21.5462207 47.52427734 -20.3137207 47.29052734 C-19.6537207 46.30052734 -18.9937207 45.31052734 -18.3137207 44.29052734 C-20.2937207 43.63052734 -22.2737207 42.97052734 -24.3137207 42.29052734 C-23.81669843 34.37186733 -21.63146548 27.49779732 -19.0012207 20.04052734 C-18.60999023 18.88294922 -18.21875977 17.72537109 -17.81567383 16.53271484 C-17.42702148 15.41638672 -17.03836914 14.30005859 -16.63793945 13.14990234 C-16.28820068 12.14411133 -15.93846191 11.13832031 -15.578125 10.10205078 C-12.16546128 2.51366781 -8.07072394 -0.01045318 0 0 Z M-6.17318726 10.63859558 C-7.45182226 13.61163665 -8.56396372 16.57465528 -9.57543945 19.64990234 C-9.97182617 20.84744141 -10.36821289 22.04498047 -10.77661133 23.27880859 C-11.18073242 24.52017578 -11.58485352 25.76154297 -12.0012207 27.04052734 C-12.42062137 28.31023087 -12.84053836 29.57976398 -13.26098633 30.84912109 C-15.31002655 35.96560559 -15.31002655 35.96560559 -16.3137207 41.29052734 C15.3662793 41.29052734 47.0462793 41.29052734 79.6862793 41.29052734 C77.69159227 33.97667491 75.630159 26.85908185 73.1237793 19.72802734 C72.82020508 18.84050781 72.51663086 17.95298828 72.20385742 17.03857422 C71.90801758 16.19230469 71.61217773 15.34603516 71.30737305 14.47412109 C71.0436792 13.71671631 70.77998535 12.95931152 70.50830078 12.17895508 C69.74085617 10.10102134 69.74085617 10.10102134 67.6862793 8.29052734 C64.59047445 7.96145393 64.59047445 7.96145393 60.89746094 7.98413086 C60.19973068 7.97580734 59.50200043 7.96748383 58.78312683 7.95890808 C56.47084008 7.9347626 54.15883509 7.92603101 51.84643555 7.91943359 C50.24222222 7.91047132 48.63800977 7.90134956 47.03379822 7.89207458 C43.66867031 7.87557011 40.30364207 7.86788174 36.93847656 7.86499023 C32.62256898 7.85960209 28.30759548 7.82191173 23.99195194 7.77624607 C20.67797916 7.74653104 17.36423292 7.73926792 14.05013847 7.73826408 C12.45886388 7.73405133 10.86758924 7.72157478 9.27644539 7.70074654 C7.05175838 7.6739418 4.82925721 7.67862195 2.60449219 7.69116211 C1.33811417 7.68609146 0.07173615 7.68102081 -1.23301697 7.67579651 C-4.47821914 7.9777562 -4.47821914 7.9777562 -6.17318726 10.63859558 Z " fill="#414143" transform="translate(218.313720703125,166.70947265625)"/>
<path d="M0 0 C2.64 0 5.28 0 8 0 C8 43.89 8 87.78 8 133 C5.36 133 2.72 133 0 133 C0 89.11 0 45.22 0 0 Z " fill="#FCFCFC" transform="translate(342,142)"/>
<path d="M0 0 C2.64 0 5.28 0 8 0 C8 43.89 8 87.78 8 133 C5.36 133 2.72 133 0 133 C0 89.11 0 45.22 0 0 Z " fill="#FCFCFC" transform="translate(150,142)"/>
<path d="M0 0 C0.82741699 0.01047363 1.65483398 0.02094727 2.50732422 0.03173828 C3.40322266 0.03818359 4.29912109 0.04462891 5.22216797 0.05126953 C6.62789063 0.07640625 6.62789063 0.07640625 8.06201172 0.10205078 C9.00689453 0.11107422 9.95177734 0.12009766 10.92529297 0.12939453 C13.26278464 0.15300556 15.59977295 0.18593562 17.93701172 0.22705078 C17.93701172 1.21705078 17.93701172 2.20705078 17.93701172 3.22705078 C16.61701172 3.22705078 15.29701172 3.22705078 13.93701172 3.22705078 C13.27701172 5.20705078 12.61701172 7.18705078 11.93701172 9.22705078 C8.96701172 9.22705078 5.99701172 9.22705078 2.93701172 9.22705078 C2.93701172 53.11705078 2.93701172 97.00705078 2.93701172 142.22705078 C2.60701172 142.22705078 2.27701172 142.22705078 1.93701172 142.22705078 C1.60701172 132.98705078 1.27701172 123.74705078 0.93701172 114.22705078 C-1.04298828 114.72205078 -1.04298828 114.72205078 -3.06298828 115.22705078 C-3.06298828 124.13705078 -3.06298828 133.04705078 -3.06298828 142.22705078 C-3.39298828 142.22705078 -3.72298828 142.22705078 -4.06298828 142.22705078 C-4.10965996 124.00786936 -4.14495337 105.7887034 -4.16661263 87.56947517 C-4.17693563 79.11042409 -4.19101546 70.65141009 -4.21386719 62.19238281 C-4.23376979 54.82153546 -4.24669726 47.45071497 -4.25116527 40.07984149 C-4.25377798 36.17517389 -4.25994008 32.27058313 -4.27444839 28.36594009 C-4.28798295 24.69375407 -4.29221935 21.02167683 -4.28920364 17.34946823 C-4.29001966 15.35312262 -4.30080283 13.35678896 -4.31182861 11.36047363 C-4.30907928 10.17974274 -4.30632996 8.99901184 -4.30349731 7.78250122 C-4.3053409 6.75193666 -4.30718449 5.72137211 -4.30908394 4.65957832 C-3.99151033 1.52052843 -3.21685191 0.35404406 0 0 Z " fill="#404042" transform="translate(338.06298828125,132.77294921875)"/>
<path d="M0 0 C1.11826172 0.0515625 2.23652344 0.103125 3.38867188 0.15625 C4.55591797 0.22070312 5.72316406 0.28515625 6.92578125 0.3515625 C8.10462891 0.40828125 9.28347656 0.465 10.49804688 0.5234375 C13.41206477 0.66500922 16.32523382 0.81643192 19.23828125 0.9765625 C18.57828125 1.6365625 17.91828125 2.2965625 17.23828125 2.9765625 C18.22828125 2.9765625 19.21828125 2.9765625 20.23828125 2.9765625 C20.56828125 2.3165625 20.89828125 1.6565625 21.23828125 0.9765625 C22.88828125 0.9765625 24.53828125 0.9765625 26.23828125 0.9765625 C25.24828125 2.6265625 24.25828125 4.2765625 23.23828125 5.9765625 C45.01828125 6.4715625 45.01828125 6.4715625 67.23828125 6.9765625 C67.23828125 7.3065625 67.23828125 7.6365625 67.23828125 7.9765625 C32.58828125 8.4715625 32.58828125 8.4715625 -2.76171875 8.9765625 C-8.38650199 21.97582962 -8.38650199 21.97582962 -13.76171875 39.9765625 C33.26328125 40.4715625 33.26328125 40.4715625 81.23828125 40.9765625 C81.23828125 41.3065625 81.23828125 41.6365625 81.23828125 41.9765625 C68.12136287 42.04598695 55.004488 42.09933535 41.88742352 42.13199902 C35.79703482 42.1476737 29.70677157 42.16894499 23.61645508 42.20288086 C17.74205602 42.23540981 11.86777782 42.25340192 5.99329567 42.26119423 C3.74893096 42.26674936 1.50457307 42.27759676 -0.73974037 42.29375267 C-3.87652657 42.3154408 -7.01280944 42.31853301 -10.1496582 42.31713867 C-11.08329697 42.3279245 -12.01693573 42.33871033 -12.97886658 42.349823 C-13.83282013 42.34569901 -14.68677368 42.34157501 -15.56660461 42.33732605 C-16.67966964 42.34147412 -16.67966964 42.34147412 -17.81522083 42.34570599 C-20.36787477 41.86160808 -21.2830833 41.09769319 -22.76171875 38.9765625 C-21.72905133 31.81862118 -19.25235256 25.04205023 -16.88671875 18.2265625 C-16.54769531 17.21207031 -16.20867187 16.19757813 -15.859375 15.15234375 C-12.92744428 6.6686963 -10.07357877 -0.51134918 0 0 Z " fill="#474749" transform="translate(216.76171875,167.0234375)"/>
<path d="M0 0 C1.98 0 3.96 0 6 0 C7.87280572 5.55936892 8.29425989 10.44870893 8.265625 16.29296875 C8.26753845 17.16141922 8.2694519 18.02986969 8.27142334 18.92463684 C8.27277737 20.74915865 8.2691359 22.57369035 8.26074219 24.39819336 C8.24999226 27.1895094 8.26068401 29.98018762 8.2734375 32.77148438 C8.27211653 34.54948058 8.26955543 36.3274764 8.265625 38.10546875 C8.26967346 38.9378154 8.27372192 39.77016205 8.27789307 40.62773132 C8.21823063 47.98989437 8.21823063 47.98989437 6 51 C4.0625 51.875 4.0625 51.875 2 52 C-1.07236226 49.95175849 -1.75880365 49.31462089 -3 46 C-3.24291992 43.48901367 -3.24291992 43.48901367 -3.23046875 40.66796875 C-3.22926025 39.62858154 -3.22805176 38.58919434 -3.22680664 37.51831055 C-3.21383545 36.41914307 -3.20086426 35.31997559 -3.1875 34.1875 C-3.18032959 33.06706299 -3.17315918 31.94662598 -3.16577148 30.79223633 C-2.92294528 5.84589055 -2.92294528 5.84589055 0 0 Z " fill="#E8E8E8" transform="translate(10,384)"/>
<path d="M0 0 C3.75212276 2.01502889 5.63644095 3.45466142 8 7 C8.58760427 11.50242236 8.50290275 15.68686505 6.875 19.9375 C3.55114421 23.59374137 0.35927659 24.83009043 -4.5 25.4375 C-8.70552222 24.91180972 -10.76772984 23.70608664 -14 21 C-16.75174967 16.59532219 -16.66954935 12.03795062 -16 7 C-12.26369403 0.59490405 -7.26751941 -1.16000791 0 0 Z " fill="#444446" transform="translate(204,221)"/>
<path d="M0 0 C3.8026029 2.0050088 5.61790841 3.42686262 8 7 C8.58760427 11.50242236 8.50290275 15.68686505 6.875 19.9375 C3.5259464 23.62145896 0.34841842 24.85806122 -4.5625 25.375 C-9.30900807 24.85719912 -11.68283297 23.49884524 -14.8125 19.9375 C-16.56102269 15.61220704 -16.69609812 11.60030063 -16 7 C-11.99730813 0.37485483 -7.34089229 -1.03975096 0 0 Z " fill="#454547" transform="translate(304,221)"/>
<path d="M0 0 C2.64 0 5.28 0 8 0 C8 18.81 8 37.62 8 57 C5.36 57 2.72 57 0 57 C0 38.19 0 19.38 0 0 Z " fill="#FCFCFC" transform="translate(342,284)"/>
<path d="M0 0 C2.64 0 5.28 0 8 0 C8 18.81 8 37.62 8 57 C5.36 57 2.72 57 0 57 C0 38.19 0 19.38 0 0 Z " fill="#FCFCFC" transform="translate(150,284)"/>
<path d="M0 0 C1.62463842 -0.05395478 3.24978541 -0.09277195 4.875 -0.125 C5.77992187 -0.14820313 6.68484375 -0.17140625 7.6171875 -0.1953125 C10 0 10 0 12 2 C12.10470753 5.08943916 12.08854402 8.08073522 11.9765625 11.1640625 C11.95153656 12.07127045 11.92651062 12.97847839 11.90072632 13.91317749 C11.81839936 16.81749134 11.72185934 19.72113795 11.625 22.625 C11.56677339 24.59111837 11.50946985 26.55726431 11.453125 28.5234375 C11.31280169 33.34934373 11.15972802 38.17469862 11 43 C10.01 43.495 10.01 43.495 9 44 C8.34227572 47.02934491 8.34227572 47.02934491 8 50 C7.34 50 6.68 50 6 50 C6 50.66 6 51.32 6 52 C6.66 52 7.32 52 8 52 C8 52.66 8 53.32 8 54 C5.69 53.34 3.38 52.68 1 52 C1 51.34 1 50.68 1 50 C1.99 49.34 2.98 48.68 4 48 C3.505 46.515 3.505 46.515 3 45 C2.01 45 1.02 45 0 45 C0 44.34 0 43.68 0 43 C1.485 42.505 1.485 42.505 3 42 C3 40.68 3 39.36 3 38 C2.01 38 1.02 38 0 38 C0.15597656 37.14535156 0.31195312 36.29070312 0.47265625 35.41015625 C0.76462891 33.75306641 0.76462891 33.75306641 1.0625 32.0625 C1.35833984 30.40927734 1.35833984 30.40927734 1.66015625 28.72265625 C1.77230469 27.82417969 1.88445313 26.92570312 2 26 C1.67 25.67 1.34 25.34 1 25 C0.8125 22.0625 0.8125 22.0625 1 19 C1.66 18.34 2.32 17.68 3 17 C3.24212873 15.01871492 3.24212873 15.01871492 3.125 12.875 C3.063125 10.956875 3.063125 10.956875 3 9 C2.01 9 1.02 9 0 9 C0 7.35 0 5.7 0 4 C0.66 4 1.32 4 2 4 C2 3.34 2 2.68 2 2 C1.34 2 0.68 2 0 2 C0 1.34 0 0.68 0 0 Z " fill="#CFCFCF" transform="translate(7,438)"/>
<path d="M0 0 C0.91442368 -0.00637985 1.82884735 -0.0127597 2.77098083 -0.01933289 C3.76573929 -0.02044571 4.76049774 -0.02155853 5.78540039 -0.02270508 C6.80026016 -0.02603348 7.81511993 -0.02936188 8.86073303 -0.03279114 C11.01196844 -0.03786483 13.16321174 -0.04019933 15.31445312 -0.04003906 C18.615447 -0.04222467 21.91610639 -0.0603734 25.21704102 -0.0793457 C27.30232632 -0.08227964 29.38761323 -0.08426443 31.47290039 -0.08520508 C32.46563461 -0.09239059 33.45836884 -0.09957611 34.48118591 -0.10697937 C35.39876175 -0.10390274 36.31633759 -0.10082611 37.26171875 -0.09765625 C38.07144638 -0.09908127 38.88117401 -0.10050629 39.71543884 -0.10197449 C41.69555664 0.14526367 41.69555664 0.14526367 43.69555664 2.14526367 C43.14000109 6.70081923 43.14000109 6.70081923 41.69555664 8.14526367 C40.26364803 8.24858294 38.82672861 8.28376253 37.39111328 8.29052734 C36.01947777 8.30009712 36.01947777 8.30009712 34.62013245 8.30986023 C33.12799477 8.31152946 33.12799477 8.31152946 31.60571289 8.31323242 C30.59085312 8.31656082 29.57599335 8.31988922 28.53038025 8.32331848 C26.37914484 8.32839217 24.22790154 8.33072667 22.07666016 8.33056641 C18.77566629 8.33275201 15.47500689 8.35090074 12.17407227 8.36987305 C10.08878696 8.37280698 8.00350005 8.37479178 5.91821289 8.37573242 C4.92547867 8.38291794 3.93274445 8.39010345 2.90992737 8.39750671 C1.99235153 8.39443008 1.0747757 8.39135345 0.12939453 8.38818359 C-0.6803331 8.38960861 -1.49006073 8.39103363 -2.32432556 8.39250183 C-4.30444336 8.14526367 -4.30444336 8.14526367 -6.30444336 6.14526367 C-5.6673014 0.92069963 -5.15960204 0.02431275 0 0 Z " fill="#424244" transform="translate(231.304443359375,224.854736328125)"/>
<path d="M0 0 C10.89 0 21.78 0 33 0 C33 2.64 33 5.28 33 8 C22.11 8 11.22 8 0 8 C0 5.36 0 2.72 0 0 Z " fill="#FCFCFC" transform="translate(325,350)"/>
<path d="M0 0 C10.89 0 21.78 0 33 0 C33 2.64 33 5.28 33 8 C22.11 8 11.22 8 0 8 C0 5.36 0 2.72 0 0 Z " fill="#FCFCFC" transform="translate(142,350)"/>
<path d="M0 0 C0.33 0.99 0.66 1.98 1 3 C4.00847418 4.22520264 4.00847418 4.22520264 7 5 C6.34 6.32 5.68 7.64 5 9 C43.28 9.33 81.56 9.66 121 10 C121 10.33 121 10.66 121 11 C104.10221392 11.24724681 87.20433418 11.46584731 70.30575085 11.65021229 C62.45969426 11.73648369 54.61396272 11.83217847 46.76831055 11.94995117 C39.93119978 12.05256066 33.09413671 12.13759808 26.25654966 12.20140952 C22.63492344 12.23582531 19.01388877 12.2791225 15.39266014 12.34345436 C11.35313591 12.41488845 7.31422338 12.44708906 3.27416992 12.47583008 C1.46695465 12.51682076 1.46695465 12.51682076 -0.37677002 12.55863953 C-2.02371605 12.56095078 -2.02371605 12.56095078 -3.70393372 12.56330872 C-4.65983304 12.57529202 -5.61573236 12.58727533 -6.60059834 12.59962177 C-9 12 -9 12 -10.64350414 9.46479321 C-11.09114778 8.65141145 -11.53879141 7.83802969 -12 7 C-12.99 7 -13.98 7 -15 7 C-10.21432051 2.05479786 -10.21432051 2.05479786 -6.8359375 1.90234375 C-5.61777344 1.91974609 -5.61777344 1.91974609 -4.375 1.9375 C-3.14910156 1.95103516 -3.14910156 1.95103516 -1.8984375 1.96484375 C-0.95871094 1.98224609 -0.95871094 1.98224609 0 2 C0 1.34 0 0.68 0 0 Z " fill="#6A6A6C" transform="translate(193,206)"/>
<path d="M0 0 C1.98 0 3.96 0 6 0 C8.8335296 7.6151108 9.15295594 15.93074373 6.9375 23.75 C5 26 5 26 1.3125 26.875 C0.219375 26.91625 -0.87375 26.9575 -2 27 C-2.97188467 22.31464555 -2.97830934 18.13990163 -2.625 13.375 C-2.53476563 12.08335937 -2.44453125 10.79171875 -2.3515625 9.4609375 C-1.99495431 5.95032802 -1.57221208 3.14442415 0 0 Z " fill="#E7E7E7" transform="translate(10,384)"/>
<path d="M0 0 C2.86719184 0.29660605 3.87707519 0.8688802 5.875 3 C7 6 7 6 5 15 C52.025 15.495 52.025 15.495 100 16 C100 16.33 100 16.66 100 17 C86.88308162 17.06942445 73.76620675 17.12277285 60.64914227 17.15543652 C54.55875357 17.1711112 48.46849032 17.19238249 42.37817383 17.22631836 C36.50377477 17.25884731 30.62949657 17.27683942 24.75501442 17.28463173 C22.51064971 17.29018686 20.26629182 17.30103426 18.02197838 17.31719017 C14.88519218 17.3388783 11.74890931 17.34197051 8.61206055 17.34057617 C7.67842178 17.351362 6.74478302 17.36214783 5.78285217 17.3732605 C4.92889862 17.36913651 4.07494507 17.36501251 3.19511414 17.36076355 C2.08204911 17.36491162 2.08204911 17.36491162 0.94649792 17.36914349 C-1.55642026 16.89447771 -2.46676617 15.99905593 -4 14 C-3.92578125 11.9140625 -3.92578125 11.9140625 -3.3125 9.625 C-3.10496094 8.83480469 -2.89742187 8.04460937 -2.68359375 7.23046875 C-1.92430547 4.75301955 -1.06685632 2.36232471 0 0 Z " fill="#69696A" transform="translate(198,192)"/>
<path d="M0 0 C0.33 0 0.66 0 1 0 C1 6.27 1 12.54 1 19 C0.34 19.33 -0.32 19.66 -1 20 C-1.65772428 23.02934491 -1.65772428 23.02934491 -2 26 C-2.66 26 -3.32 26 -4 26 C-4 26.66 -4 27.32 -4 28 C-3.34 28 -2.68 28 -2 28 C-2 28.66 -2 29.32 -2 30 C-4.31 29.34 -6.62 28.68 -9 28 C-9 27.34 -9 26.68 -9 26 C-8.01 25.34 -7.02 24.68 -6 24 C-6.33 23.01 -6.66 22.02 -7 21 C-7.99 21 -8.98 21 -10 21 C-10 20.34 -10 19.68 -10 19 C-9.01 18.67 -8.02 18.34 -7 18 C-7 16.68 -7 15.36 -7 14 C-7.99 14 -8.98 14 -10 14 C-10 13.34 -10 12.68 -10 12 C-9.01 12 -8.02 12 -7 12 C-7 9.69 -7 7.38 -7 5 C-4.92446352 4.4465236 -3.15634036 4 -1 4 C-0.67 2.68 -0.34 1.36 0 0 Z " fill="#B3B3B3" transform="translate(17,462)"/>
<path d="M0 0 C3.3 0 6.6 0 10 0 C9.34 0.66 8.68 1.32 8 2 C8.99 2 9.98 2 11 2 C11.33 1.34 11.66 0.68 12 0 C13.65 0 15.3 0 17 0 C16.01 1.65 15.02 3.3 14 5 C35.78 5.495 35.78 5.495 58 6 C58 6.33 58 6.66 58 7 C35.56 7 13.12 7 -10 7 C-9.01 5.68 -8.02 4.36 -7 3 C-3.87376745 2.68099668 -1.82883747 2.58558126 1 4 C0.67 2.68 0.34 1.36 0 0 Z " fill="#4D4D4E" transform="translate(226,168)"/>
<path d="M0 0 C2.64 0 5.28 0 8 0 C8 5.28 8 10.56 8 16 C5.36 16 2.72 16 0 16 C0 10.72 0 5.44 0 0 Z " fill="#F8F8F8" transform="translate(300,259)"/>
<path d="M0 0 C2.64 0 5.28 0 8 0 C8 5.28 8 10.56 8 16 C5.36 16 2.72 16 0 16 C0 10.72 0 5.44 0 0 Z " fill="#FBFBFB" transform="translate(192,259)"/>
<path d="M0 0 C3.3 0 6.6 0 10 0 C10.33 1.65 10.66 3.3 11 5 C27.83 5.33 44.66 5.66 62 6 C62 6.33 62 6.66 62 7 C54.08114422 7.04628946 46.16234474 7.08185182 38.24338722 7.10362434 C34.5665065 7.11407274 30.88971817 7.12825102 27.21289062 7.15087891 C23.66620345 7.17256991 20.11960528 7.18456067 16.5728569 7.18975449 C15.21802748 7.193457 13.86320306 7.20068689 12.50841141 7.21146011 C10.61454243 7.22592448 8.72058436 7.22681649 6.82666016 7.22705078 C5.74744293 7.231492 4.66822571 7.23593323 3.55630493 7.24050903 C1 7 1 7 -1 5 C-0.625 2.375 -0.625 2.375 0 0 Z " fill="#3C3C3E" transform="translate(272,276)"/>
<path d="M0 0 C6.27 0 12.54 0 19 0 C19 0.33 19 0.66 19 1 C17.02 1 15.04 1 13 1 C13.66 1.66 14.32 2.32 15 3 C17.31994814 2.89434771 19.52093359 2.48570495 21.80859375 2.09375 C24 2 24 2 27 4 C27 4.99 27 5.98 27 7 C24.18743719 7.02684312 21.37512759 7.04676188 18.5625 7.0625 C17.76005859 7.07087891 16.95761719 7.07925781 16.13085938 7.08789062 C14.08704779 7.0965143 12.04316098 7.0522815 10 7 C9 6 9 6 8.9375 3.4375 C8.958125 2.633125 8.97875 1.82875 9 1 C6.03 1 3.06 1 0 1 C0 0.67 0 0.34 0 0 Z " fill="#4C4C4E" transform="translate(273,275)"/>
<path d="M0 0 C23.76 0 47.52 0 72 0 C72 0.33 72 0.66 72 1 C56.16 1 40.32 1 24 1 C23.67 1.99 23.34 2.98 23 4 C21.68 3.67 20.36 3.34 19 3 C19.33 2.67 19.66 2.34 20 2 C13.4 1.67 6.8 1.34 0 1 C0 0.67 0 0.34 0 0 Z " fill="#38383A" transform="translate(214,167)"/>
<path d="M0 0 C0.33 0.66 0.66 1.32 1 2 C1.99 2 2.98 2 4 2 C4.33 1.34 4.66 0.68 5 0 C5 5.28 5 10.56 5 16 C4.67 15.34 4.34 14.68 4 14 C3.34 14 2.68 14 2 14 C1.67 14.99 1.34 15.98 1 17 C0.01 16.67 -0.98 16.34 -2 16 C-2.125 13.125 -2.125 13.125 -2 10 C-1.34 9.34 -0.68 8.68 0 8 C0.24212873 6.01871492 0.24212873 6.01871492 0.125 3.875 C0.063125 1.956875 0.063125 1.956875 0 0 Z " fill="#9C9C9C" transform="translate(10,447)"/>
<path d="M0 0 C0.598125 0.226875 1.19625 0.45375 1.8125 0.6875 C1.4825 1.22375 1.1525 1.76 0.8125 2.3125 C-0.41449204 5.2266061 -0.32983286 7.55617708 -0.1875 10.6875 C-0.8475 10.6875 -1.5075 10.6875 -2.1875 10.6875 C-2.1875 16.6275 -2.1875 22.5675 -2.1875 28.6875 C-2.5175 28.6875 -2.8475 28.6875 -3.1875 28.6875 C-3.24808594 27.39972656 -3.30867188 26.11195313 -3.37109375 24.78515625 C-3.45548247 23.10675841 -3.5401313 21.42837364 -3.625 19.75 C-3.66431641 18.89986328 -3.70363281 18.04972656 -3.74414062 17.17382812 C-3.78603516 16.36494141 -3.82792969 15.55605469 -3.87109375 14.72265625 C-3.90775146 13.9737915 -3.94440918 13.22492676 -3.98217773 12.45336914 C-4.00521063 10.66288674 -4.00521063 10.66288674 -5.1875 9.6875 C-5.65107616 3.42922185 -5.65107616 3.42922185 -3.9375 0.6875 C-2.1875 -0.3125 -2.1875 -0.3125 0 0 Z " fill="#5C5C5D" transform="translate(319.1875,246.3125)"/>
<path d="M0 0 C2.33333333 0 4.66666667 0 7 0 C7 2.97 7 5.94 7 9 C5.35 8.01 3.7 7.02 2 6 C2.9977758 8.99332739 3.7522025 9.94766315 6 12 C5.34 12.66 4.68 13.32 4 14 C1 12 1 12 0.48828125 9.94140625 C0.43027344 9.15636719 0.37226563 8.37132812 0.3125 7.5625 C0.24675781 6.78003906 0.18101563 5.99757813 0.11328125 5.19140625 C0.02392544 3.46283358 0 1.73088068 0 0 Z " fill="#959595" transform="translate(8,422)"/>
<path d="M0 0 C-0.99 0.495 -0.99 0.495 -2 1 C-2 2.98 -2 4.96 -2 7 C-3.32 7 -4.64 7 -6 7 C-6.66 6.01 -7.32 5.02 -8 4 C-9.99983534 4.79117904 -9.99983534 4.79117904 -12 6 C-12.33 6.99 -12.66 7.98 -13 9 C-13.99 9.33 -14.98 9.66 -16 10 C-15.70179167 6.42150008 -15.25754642 5.23773516 -12.5625 2.75 C-8.03252139 -0.34364393 -5.41338706 -0.08731269 0 0 Z " fill="#444446" transform="translate(204,221)"/>
<path d="M0 0 C3.96 0 7.92 0 12 0 C12.33 1.32 12.66 2.64 13 4 C11.1128125 3.9071875 11.1128125 3.9071875 9.1875 3.8125 C5.83041021 3.76367078 5.83041021 3.76367078 3 5.5 C2.505 6.2425 2.505 6.2425 2 7 C-0.46278801 5.768606 -1.42497687 4.21935077 -3 2 C-2.01 2 -1.02 2 0 2 C0 1.34 0 0.68 0 0 Z " fill="#414143" transform="translate(214,168)"/>
<path d="M0 0 C2.97 0 5.94 0 9 0 C9.10779482 3.10508973 9.18720629 6.20645418 9.25 9.3125 C9.28351563 10.19357422 9.31703125 11.07464844 9.3515625 11.98242188 C9.45112665 18.52876499 9.45112665 18.52876499 6.984375 21.10546875 C6.32953125 21.40066406 5.6746875 21.69585937 5 22 C2.5 20.625 2.5 20.625 0 19 C0 18.34 0 17.68 0 17 C2.64 17 5.28 17 8 17 C8 11.72 8 6.44 8 1 C5.36 1 2.72 1 0 1 C0 0.67 0 0.34 0 0 Z " fill="#6A6A6B" transform="translate(300,258)"/>
<path d="M0 0 C4.55555556 0.55555556 4.55555556 0.55555556 6 2 C6.125 4.5 6.125 4.5 6 7 C5 8 5 8 1.9375 8.0625 C0.968125 8.041875 -0.00125 8.02125 -1 8 C-1.625 5.125 -1.625 5.125 -2 2 C-1.34 1.34 -0.68 0.68 0 0 Z " fill="#EFEFEF" transform="translate(298,229)"/>
<path d="M0 0 C4.55555556 0.55555556 4.55555556 0.55555556 6 2 C6.125 4.5 6.125 4.5 6 7 C5 8 5 8 1.9375 8.0625 C0.968125 8.041875 -0.00125 8.02125 -1 8 C-1.625 5.125 -1.625 5.125 -2 2 C-1.34 1.34 -0.68 0.68 0 0 Z " fill="#EFEFEF" transform="translate(198,229)"/>
<path d="M0 0 C2.64 0 5.28 0 8 0 C8 2.31 8 4.62 8 7 C7.34 7 6.68 7 6 7 C6 7.66 6 8.32 6 9 C6.66 9 7.32 9 8 9 C8 9.66 8 10.32 8 11 C5.69 10.34 3.38 9.68 1 9 C1 8.34 1 7.68 1 7 C1.99 6.34 2.98 5.68 4 5 C3.67 4.01 3.34 3.02 3 2 C2.01 2 1.02 2 0 2 C0 1.34 0 0.68 0 0 Z " fill="#868686" transform="translate(7,481)"/>
<path d="M0 0 C1.67542976 0.28604898 3.34385343 0.61781233 5 1 C5.33 1.99 5.66 2.98 6 4 C5.01 4 4.02 4 3 4 C3.99 4.66 4.98 5.32 6 6 C6 6.99 6 7.98 6 9 C1.25 10.125 1.25 10.125 -1 9 C-1.09765625 2.84765625 -1.09765625 2.84765625 -1 1 C-0.67 0.67 -0.34 0.34 0 0 Z " fill="#909090" transform="translate(9,386)"/>
<path d="M0 0 C2.475 0.99 2.475 0.99 5 2 C5 5.96 5 9.92 5 14 C3.35 14.66 1.7 15.32 0 16 C0 14.68 0 13.36 0 12 C0.99 11.34 1.98 10.68 3 10 C2.65213292 8.02463255 2.65213292 8.02463255 2 6 C1.34 5.67 0.68 5.34 0 5 C0 3.35 0 1.7 0 0 Z " fill="#4C4C4E" transform="translate(310,257)"/>
<path d="M0 0 C1.65 0 3.3 0 5 0 C5.95808288 3.5928108 6.20508082 5.38475753 5 9 C5 8.34 5 7.68 5 7 C4.34 7 3.68 7 3 7 C3 7.66 3 8.32 3 9 C1.68 9 0.36 9 -1 9 C0 6 0 6 1 5 C0.34 4.67 -0.32 4.34 -1 4 C-0.67 2.68 -0.34 1.36 0 0 Z " fill="#838383" transform="translate(9,411)"/>
<path d="M0 0 C1.8125 0.1875 1.8125 0.1875 4 1 C5.8125 3.4375 5.8125 3.4375 7 6 C6.67 6.66 6.34 7.32 6 8 C3.16032769 8 0.76264289 7.59732819 -2 7 C-1.34 4.69 -0.68 2.38 0 0 Z " fill="#545456" transform="translate(198,192)"/>
<path d="M0 0 C5.78461538 4.43076923 5.78461538 4.43076923 6.875 7.3125 C6.936875 8.1478125 6.936875 8.1478125 7 9 C4.69 8.67 2.38 8.34 0 8 C-0.79953138 4.71303767 -1.09658936 3.28976808 0 0 Z " fill="#525254" transform="translate(195,200)"/>
<path d="M0 0 C0 0.66 0 1.32 0 2 C0.66 2 1.32 2 2 2 C2 2.99 2 3.98 2 5 C1.34 5 0.68 5 0 5 C-0.33 5.99 -0.66 6.98 -1 8 C-1 7.01 -1 6.02 -1 5 C-1.99 5.495 -1.99 5.495 -3 6 C-3.40729228 8.32156597 -3.74438677 10.6568787 -4 13 C-4.66 12.67 -5.32 12.34 -6 12 C-5 0 -5 0 0 0 Z " fill="#E4E4E4" transform="translate(14,461)"/>
<path d="M0 0 C0.33 0 0.66 0 1 0 C2.125 5.625 2.125 5.625 1 9 C2.32 9.66 3.64 10.32 5 11 C4.505 11.350625 4.01 11.70125 3.5 12.0625 C1.28763961 14.92013217 1.93698782 17.47131804 2 21 C1.34 21.99 0.68 22.98 0 24 C0 16.08 0 8.16 0 0 Z " fill="#EAEAEA" transform="translate(7,406)"/>
<path d="M0 0 C0 0.99 0 1.98 0 3 C-0.99 3.495 -0.99 3.495 -2 4 C-1.01 4.99 -0.02 5.98 1 7 C0.01 7.99 -0.98 8.98 -2 10 C-2.99 9.34 -3.98 8.68 -5 8 C-4.67 6.35 -4.34 4.7 -4 3 C-4.66 2.67 -5.32 2.34 -6 2 C-3 0 -3 0 0 0 Z " fill="#4D4D4E" transform="translate(214,167)"/>
<path d="M0 0 C0.66 0 1.32 0 2 0 C2.28571429 8.57142857 2.28571429 8.57142857 0 12 C-0.33 11.01 -0.66 10.02 -1 9 C-1.66 9 -2.32 9 -3 9 C-3 8.34 -3 7.68 -3 7 C-2.34 7 -1.68 7 -1 7 C-1.33 6.01 -1.66 5.02 -2 4 C-1.0625 1.8125 -1.0625 1.8125 0 0 Z " fill="#ECECEC" transform="translate(16,481)"/>
<path d="M0 0 C1.32 0.33 2.64 0.66 4 1 C3.34 1 2.68 1 2 1 C2.33 2.32 2.66 3.64 3 5 C4.32 5 5.64 5 7 5 C6.67 6.32 6.34 7.64 6 9 C3.13275314 8.42655063 2.1385485 8.1385485 0 6 C-0.125 2.875 -0.125 2.875 0 0 Z " fill="#818181" transform="translate(8,397)"/>
<path d="M0 0 C0.78375 0.04125 1.5675 0.0825 2.375 0.125 C1.055 0.455 -0.265 0.785 -1.625 1.125 C-2.34554048 6.78638945 -3.00773804 12.45144329 -3.625 18.125 C-3.955 18.125 -4.285 18.125 -4.625 18.125 C-4.67882106 15.49972811 -4.71858313 12.87555287 -4.75 10.25 C-4.76675781 9.50363281 -4.78351562 8.75726563 -4.80078125 7.98828125 C-4.8183959 6.03305539 -4.72820189 4.07757979 -4.625 2.125 C-2.625 0.125 -2.625 0.125 0 0 Z " fill="#EEEEEE" transform="translate(11.625,382.875)"/>
<path d="M0 0 C1.66611905 -0.042721 3.33382885 -0.04063832 5 0 C6 1 6 1 6.0625 3.5625 C6.041875 4.366875 6.02125 5.17125 6 6 C4.35 6.66 2.7 7.32 1 8 C1.020625 7.236875 1.04125 6.47375 1.0625 5.6875 C1.12942841 2.89814214 1.12942841 2.89814214 0 0 Z " fill="#BABABA" transform="translate(9,395)"/>
<path d="M0 0 C0.33 0.66 0.66 1.32 1 2 C1.99 2 2.98 2 4 2 C4.33 1.34 4.66 0.68 5 0 C5 2.64 5 5.28 5 8 C4.34 7.67 3.68 7.34 3 7 C2.67 7.33 2.34 7.66 2 8 C1.34 8 0.68 8 0 8 C0 5.36 0 2.72 0 0 Z " fill="#6D6D6D" transform="translate(10,447)"/>
<path d="M0 0 C0.99 0.33 1.98 0.66 3 1 C2.25 3.4375 2.25 3.4375 1 6 C-1.125 6.8125 -1.125 6.8125 -3 7 C-2.25 2.25 -2.25 2.25 0 0 Z " fill="#444445" transform="translate(321,249)"/>
<path d="M0 0 C1.32 0.33 2.64 0.66 4 1 C3.34 1 2.68 1 2 1 C2.9977758 3.99332739 3.7522025 4.94766315 6 7 C5.34 7.66 4.68 8.32 4 9 C3.01 8.34 2.02 7.68 1 7 C0.3125 3.375 0.3125 3.375 0 0 Z " fill="#767676" transform="translate(8,427)"/>
<path d="M0 0 C1.65 0.33 3.3 0.66 5 1 C5.33 1.99 5.66 2.98 6 4 C3.69 4 1.38 4 -1 4 C-0.67 2.68 -0.34 1.36 0 0 Z " fill="#7A7A7A" transform="translate(9,386)"/>
<path d="M0 0 C1.65 0 3.3 0 5 0 C4.67 1.32 4.34 2.64 4 4 C2.68 4.33 1.36 4.66 0 5 C0 3.35 0 1.7 0 0 Z " fill="#4B4B4D" transform="translate(335,243)"/>
<path d="M0 0 C0.66 0.66 1.32 1.32 2 2 C-0.57784846 4.64752004 -2.91648098 6.94432065 -6 9 C-5.69381595 5.32579134 -5.24228216 4.21864487 -2.4375 1.6875 C-1.633125 1.130625 -0.82875 0.57375 0 0 Z " fill="#4E4E4F" transform="translate(194,222)"/>
<path d="M0 0 C0 0.99 0 1.98 0 3 C0.66 3 1.32 3 2 3 C2 3.66 2 4.32 2 5 C-0.31 4.34 -2.62 3.68 -5 3 C-5 2.34 -5 1.68 -5 1 C-3 0 -3 0 0 0 Z " fill="#757575" transform="translate(13,487)"/>
<path d="M0 0 C2.1385485 2.1385485 2.42655063 3.13275314 3 6 C1.35 6.33 -0.3 6.66 -2 7 C-2 3.89448334 -1.4606285 2.64738916 0 0 Z " fill="#929292" transform="translate(12,452)"/>
<path d="M0 0 C0.66 0 1.32 0 2 0 C2.33 0.99 2.66 1.98 3 3 C1.02 3.99 -0.96 4.98 -3 6 C-3.33 5.01 -3.66 4.02 -4 3 C-2.68 2.67 -1.36 2.34 0 2 C0 1.34 0 0.68 0 0 Z " fill="#D3D3D3" transform="translate(12,418)"/>
<path d="M0 0 C0 1.65 0 3.3 0 5 C-1.65 5 -3.3 5 -5 5 C-2.74193548 0 -2.74193548 0 0 0 Z " fill="#E3E3E3" transform="translate(12,433)"/>
<path d="M0 0 C2.9375 0.375 2.9375 0.375 6 1 C6.33 1.66 6.66 2.32 7 3 C4.69 3.33 2.38 3.66 0 4 C0 2.68 0 1.36 0 0 Z " fill="#868686" transform="translate(8,407)"/>
<path d="M0 0 C2.64 0 5.28 0 8 0 C7.360625 0.103125 6.72125 0.20625 6.0625 0.3125 C5.381875 0.539375 4.70125 0.76625 4 1 C3.67 1.99 3.34 2.98 3 4 C2.34 4 1.68 4 1 4 C0.67 2.68 0.34 1.36 0 0 Z " fill="#3F3F40" transform="translate(184,209)"/>
</svg>
